<?xml version="1.0" encoding="utf-8"?>
<!-- Generator: Adobe Illustrator 16.0.0, SVG Export Plug-In . SVG Version: 6.00 Build 0)  -->
<!DOCTYPE svg PUBLIC "-//W3C//DTD SVG 1.1//EN" "http://www.w3.org/Graphics/SVG/1.1/DTD/svg11.dtd">
<svg version="1.1" id="Layer_1" xmlns="http://www.w3.org/2000/svg" xmlns:xlink="http://www.w3.org/1999/xlink" x="0px" y="0px"
	 width="275px" height="30px" viewBox="0 0 275 30" style="enable-background:new 0 0 275 30;" xml:space="preserve">
<g>
	<path style="fill:#B9B9B9;" d="M21.426,21.301h2.988c-0.065,3.633-1.543,5.794-4.434,6.484c-1.224,0.3-3.034,0.449-5.43,0.449
		c-2.565,0-4.388-0.052-5.469-0.156c-2.448-0.222-4.173-0.71-5.176-1.465c-1.81-1.367-2.715-3.978-2.715-7.832
		c0-4.909,1.497-7.858,4.492-8.848C7.129,9.465,9.499,9.23,12.793,9.23c2.37,0,4.102,0.072,5.195,0.215
		c2.227,0.287,3.802,0.905,4.727,1.855c0.977,0.99,1.51,2.585,1.602,4.785H21.25c-0.052-2.057-1.029-3.359-2.93-3.906
		c-0.847-0.247-2.689-0.371-5.527-0.371c-3.333,0-5.515,0.339-6.543,1.016c-1.289,0.847-1.934,2.904-1.934,6.172
		c0,3.099,0.768,5.039,2.305,5.82c1.094,0.56,3.548,0.84,7.363,0.84c2.591,0,4.284-0.144,5.078-0.43
		C20.56,24.653,21.348,23.345,21.426,21.301z"/>
	<path style="fill:#B9B9B9;" d="M27.109,1.34h2.93v10.879h0.234c0.742-1.393,2.142-2.292,4.199-2.695
		C35.462,9.328,37.2,9.23,39.688,9.23c4.609,0,7.559,0.671,8.848,2.012c0.742,0.781,1.217,1.908,1.426,3.379
		c0.091,0.664,0.137,1.914,0.137,3.75V28h-2.93v-8.711c0-1.627-0.02-2.643-0.059-3.047c-0.13-1.237-0.456-2.181-0.977-2.832
		c-0.873-1.067-3.145-1.602-6.816-1.602c-4.219,0-6.927,0.677-8.125,2.031c-0.573,0.638-0.931,1.498-1.074,2.578
		c-0.052,0.443-0.078,1.4-0.078,2.871V28h-2.93V1.34z"/>
	<path style="fill:#B9B9B9;" d="M56.367,15.031H53.32c-0.026-0.338-0.039-0.605-0.039-0.801c0-2.344,1.25-3.854,3.75-4.531
		c1.172-0.325,3.385-0.488,6.641-0.488c2.578,0,4.336,0.059,5.273,0.176c2.2,0.273,3.789,0.905,4.766,1.895
		c0.768,0.781,1.25,1.875,1.445,3.281c0.078,0.56,0.117,1.784,0.117,3.672V28h-2.91l0.059-2.168h-0.156
		c-0.859,1.185-2.129,1.927-3.809,2.227c-0.677,0.117-2.214,0.176-4.609,0.176c-2.708,0-4.349-0.02-4.922-0.059
		c-2.292-0.144-3.861-0.527-4.707-1.152c-1.159-0.859-1.738-2.331-1.738-4.414c0-2.63,0.84-4.303,2.52-5.02
		c1.016-0.43,3.327-0.645,6.934-0.645c3.32,0,5.117,0.014,5.391,0.039c2.396,0.222,3.991,0.873,4.785,1.953h0.254v-1.992
		c0-1.38-0.208-2.428-0.625-3.145c-0.508-0.846-1.38-1.406-2.617-1.68c-1.068-0.221-2.806-0.332-5.215-0.332
		c-2.644,0-4.206,0.046-4.688,0.137c-1.901,0.352-2.852,1.302-2.852,2.852V15.031z M63.867,19.543c-4.05,0-6.419,0.202-7.109,0.605
		c-0.769,0.456-1.152,1.296-1.152,2.52c0,1.211,0.456,2.031,1.367,2.461c0.742,0.352,3.242,0.527,7.5,0.527
		c2.539,0,4.121-0.059,4.746-0.176c1.953-0.391,2.93-1.354,2.93-2.891c0-1.51-1.094-2.461-3.281-2.852
		C68.151,19.608,66.484,19.543,63.867,19.543z"/>
	<path style="fill:#B9B9B9;" d="M101.934,1.34V28h-2.93v-2.383h-0.175c-0.832,1.276-2.164,2.077-3.997,2.402
		c-0.767,0.144-2.398,0.215-4.894,0.215c-4.367,0-7.271-0.417-8.714-1.25c-1.339-0.769-2.262-1.96-2.769-3.574
		c-0.351-1.133-0.526-2.669-0.526-4.609c0-5.013,1.523-7.981,4.57-8.906c1.458-0.442,4.192-0.664,8.203-0.664
		c2.122,0,3.6,0.085,4.434,0.254c1.692,0.326,2.917,1.062,3.672,2.207h0.195V1.34H101.934z M90.43,11.809
		c-3.894,0-6.361,0.339-7.402,1.016c-1.315,0.859-1.973,2.852-1.973,5.977c0,3.008,0.664,4.954,1.992,5.84
		c1.016,0.677,3.157,1.016,6.426,1.016c4.114,0,6.667-0.339,7.656-1.016c1.315-0.898,1.973-2.799,1.973-5.703
		c0-3.372-0.736-5.462-2.207-6.27C95.853,12.095,93.698,11.809,90.43,11.809z"/>
	<path style="fill:#B9B9B9;" d="M104.863,9.465h20.02v2.604L108.394,25.5H125V28h-20.801v-2.852l16.308-13.184h-15.644V9.465z"/>
	<path style="fill:#B9B9B9;" d="M127.148,1.34h2.93v3.477h-2.93V1.34z M127.148,9.465h2.93V28h-2.93V9.465z"/>
	<path style="fill:#B9B9B9;" d="M133.555,1.34h2.93V28h-2.93V1.34z"/>
	<path style="fill:#B9B9B9;" d="M139.961,1.34h2.93V28h-2.93V1.34z"/>
	<path style="fill:#B9B9B9;" d="M149.453,15.031h-3.047c-0.026-0.338-0.039-0.605-0.039-0.801c0-2.344,1.25-3.854,3.75-4.531
		c1.172-0.325,3.386-0.488,6.641-0.488c2.578,0,4.336,0.059,5.273,0.176c2.2,0.273,3.789,0.905,4.766,1.895
		c0.769,0.781,1.25,1.875,1.445,3.281c0.078,0.56,0.117,1.784,0.117,3.672V28h-2.91l0.059-2.168h-0.156
		c-0.859,1.185-2.129,1.927-3.809,2.227c-0.677,0.117-2.214,0.176-4.609,0.176c-2.708,0-4.349-0.02-4.922-0.059
		c-2.292-0.144-3.86-0.527-4.707-1.152c-1.159-0.859-1.738-2.331-1.738-4.414c0-2.63,0.84-4.303,2.52-5.02
		c1.016-0.43,3.327-0.645,6.934-0.645c3.32,0,5.117,0.014,5.391,0.039c2.396,0.222,3.991,0.873,4.785,1.953h0.254v-1.992
		c0-1.38-0.208-2.428-0.625-3.145c-0.508-0.846-1.38-1.406-2.617-1.68c-1.067-0.221-2.806-0.332-5.215-0.332
		c-2.644,0-4.206,0.046-4.688,0.137c-1.901,0.352-2.852,1.302-2.852,2.852V15.031z M156.953,19.543c-4.05,0-6.419,0.202-7.109,0.605
		c-0.769,0.456-1.152,1.296-1.152,2.52c0,1.211,0.456,2.031,1.367,2.461c0.742,0.352,3.242,0.527,7.5,0.527
		c2.539,0,4.121-0.059,4.746-0.176c1.953-0.391,2.93-1.354,2.93-2.891c0-1.51-1.094-2.461-3.281-2.852
		C161.237,19.608,159.57,19.543,156.953,19.543z"/>
	<path style="fill:#B9B9B9;" d="M172.48,23.488h4.336V28h-4.336V23.488z"/>
	<path style="fill:#B9B9B9;" d="M200.898,21.301h2.988c-0.065,3.633-1.543,5.794-4.434,6.484c-1.224,0.3-3.034,0.449-5.43,0.449
		c-2.565,0-4.388-0.052-5.469-0.156c-2.448-0.222-4.173-0.71-5.176-1.465c-1.81-1.367-2.715-3.978-2.715-7.832
		c0-4.909,1.497-7.858,4.492-8.848c1.445-0.469,3.815-0.703,7.109-0.703c2.37,0,4.102,0.072,5.195,0.215
		c2.227,0.287,3.802,0.905,4.727,1.855c0.977,0.99,1.511,2.585,1.602,4.785h-3.066c-0.052-2.057-1.028-3.359-2.93-3.906
		c-0.847-0.247-2.688-0.371-5.527-0.371c-3.333,0-5.515,0.339-6.543,1.016c-1.289,0.847-1.934,2.904-1.934,6.172
		c0,3.099,0.769,5.039,2.305,5.82c1.094,0.56,3.548,0.84,7.363,0.84c2.591,0,4.284-0.144,5.078-0.43
		C200.032,24.653,200.82,23.345,200.898,21.301z"/>
	<path style="fill:#B9B9B9;" d="M217.441,9.23c5.104,0,8.34,0.41,9.707,1.23c2.214,1.328,3.32,4.089,3.32,8.281
		c0,3.958-0.918,6.602-2.754,7.93c-1.458,1.042-4.453,1.562-8.984,1.562c-4.648,0-7.722-0.403-9.219-1.211
		c-1.406-0.755-2.376-1.96-2.91-3.613c-0.364-1.172-0.547-2.76-0.547-4.766c0-4.805,1.465-7.702,4.395-8.691
		C211.855,9.472,214.187,9.23,217.441,9.23z M217.91,11.809c-3.477,0-5.729,0.332-6.758,0.996c-1.315,0.847-1.973,2.852-1.973,6.016
		c0,1.589,0.137,2.8,0.41,3.633c0.417,1.263,1.204,2.116,2.363,2.559c1.12,0.43,3.301,0.645,6.543,0.645
		c3.646,0,5.989-0.371,7.031-1.113c1.211-0.872,1.816-2.838,1.816-5.898c0-1.68-0.156-2.949-0.469-3.809
		c-0.469-1.302-1.354-2.142-2.656-2.52C223.06,11.978,220.957,11.809,217.91,11.809z"/>
	<path style="fill:#B9B9B9;" d="M233.262,9.465h2.949v2.441c1.003-1.224,2.129-2.005,3.379-2.344c0.794-0.221,2.2-0.332,4.219-0.332
		c2.526,0,4.31,0.117,5.352,0.352c1.992,0.443,3.411,1.4,4.258,2.871c0.703-1.419,1.953-2.356,3.75-2.812
		c1.042-0.273,2.669-0.41,4.883-0.41c2.083,0,3.633,0.091,4.648,0.273c1.81,0.312,3.171,0.97,4.082,1.973
		c0.716,0.781,1.159,1.855,1.328,3.223c0.078,0.547,0.117,1.732,0.117,3.555V28h-2.93V17.57c0-2.278-0.339-3.75-1.016-4.414
		c-0.911-0.898-2.995-1.348-6.25-1.348c-3.398,0-5.56,0.541-6.484,1.621c-0.625,0.729-1.022,1.895-1.191,3.496
		c-0.078,0.69-0.117,1.947-0.117,3.77V28h-2.93V17.57c0-2.292-0.338-3.756-1.015-4.395c-0.962-0.911-3.056-1.367-6.28-1.367
		c-3.446,0-5.664,0.56-6.652,1.68c-0.585,0.664-0.949,1.823-1.092,3.477c-0.039,0.495-0.059,1.738-0.059,3.73V28h-2.949V9.465z"/>
</g>
<g>
</g>
<g>
</g>
<g>
</g>
<g>
</g>
<g>
</g>
<g>
</g>
<g>
</g>
<g>
</g>
<g>
</g>
<g>
</g>
<g>
</g>
<g>
</g>
<g>
</g>
<g>
</g>
<g>
</g>
</svg>
