<?xml version="1.0" encoding="utf-8"?>
<!-- Generator: Adobe Illustrator 16.0.0, SVG Export Plug-In . SVG Version: 6.00 Build 0)  -->
<!DOCTYPE svg PUBLIC "-//W3C//DTD SVG 1.1//EN" "http://www.w3.org/Graphics/SVG/1.1/DTD/svg11.dtd">
<svg version="1.1" id="Layer_2" xmlns="http://www.w3.org/2000/svg" xmlns:xlink="http://www.w3.org/1999/xlink" x="0px" y="0px"
	 width="330px" height="46px" viewBox="15 7.25 330 46" enable-background="new 15 7.25 330 46" xml:space="preserve">
<g>
	<path fill="#EEEEEE" d="M37.497,29.229h3.138c-0.068,3.814-1.62,6.084-4.655,6.809c-1.285,0.314-3.186,0.472-5.701,0.472
		c-2.693,0-4.607-0.055-5.742-0.164c-2.57-0.232-4.382-0.745-5.435-1.538c-1.9-1.436-2.851-4.177-2.851-8.224
		c0-5.154,1.572-8.251,4.717-9.29c1.518-0.492,4.006-0.738,7.465-0.738c2.488,0,4.307,0.075,5.455,0.226
		c2.338,0.301,3.992,0.95,4.963,1.948c1.025,1.039,1.586,2.714,1.682,5.024h-3.22c-0.055-2.16-1.08-3.527-3.076-4.102
		c-0.889-0.26-2.823-0.39-5.804-0.39c-3.5,0-5.79,0.355-6.87,1.066c-1.354,0.889-2.03,3.049-2.03,6.48
		c0,3.254,0.807,5.291,2.42,6.111c1.148,0.588,3.726,0.882,7.731,0.882c2.721,0,4.498-0.15,5.332-0.451
		C36.588,32.75,37.415,31.376,37.497,29.229z"/>
	<path fill="#EEEEEE" d="M43.171,8.271h3.076v11.423h0.246c0.779-1.463,2.249-2.406,4.409-2.83c1.039-0.205,2.864-0.308,5.476-0.308
		c4.84,0,7.937,0.704,9.29,2.112c0.779,0.82,1.278,2.003,1.497,3.548c0.096,0.697,0.144,2.01,0.144,3.938v10.11h-3.076v-9.146
		c0-1.709-0.021-2.775-0.062-3.199c-0.137-1.299-0.479-2.29-1.025-2.974c-0.916-1.121-3.302-1.682-7.157-1.682
		c-4.43,0-7.273,0.711-8.531,2.133c-0.602,0.67-0.978,1.572-1.128,2.707c-0.055,0.465-0.082,1.47-0.082,3.015v9.146h-3.076V8.271z"
		/>
	<path fill="#EEEEEE" d="M73.598,22.646h-3.199c-0.027-0.355-0.041-0.636-0.041-0.841c0-2.461,1.312-4.047,3.938-4.758
		c1.23-0.342,3.555-0.513,6.973-0.513c2.707,0,4.553,0.062,5.537,0.185c2.311,0.287,3.979,0.95,5.004,1.989
		c0.807,0.82,1.312,1.969,1.518,3.445c0.082,0.588,0.123,1.873,0.123,3.855v10.254h-3.056l0.062-2.276h-0.164
		c-0.902,1.244-2.235,2.023-3.999,2.338c-0.711,0.123-2.324,0.185-4.84,0.185c-2.844,0-4.566-0.021-5.168-0.062
		c-2.406-0.15-4.054-0.554-4.942-1.21c-1.217-0.902-1.825-2.447-1.825-4.635c0-2.762,0.882-4.519,2.646-5.271
		c1.066-0.451,3.493-0.677,7.28-0.677c3.486,0,5.373,0.014,5.66,0.041c2.516,0.232,4.19,0.916,5.024,2.051h0.267v-2.092
		c0-1.449-0.219-2.55-0.656-3.302c-0.533-0.889-1.449-1.477-2.748-1.764c-1.121-0.232-2.946-0.349-5.476-0.349
		c-2.775,0-4.416,0.048-4.922,0.144c-1.996,0.369-2.994,1.367-2.994,2.994V22.646z M81.473,27.384c-4.252,0-6.74,0.212-7.465,0.636
		c-0.807,0.479-1.21,1.36-1.21,2.646c0,1.271,0.479,2.133,1.436,2.584c0.779,0.369,3.404,0.554,7.875,0.554
		c2.666,0,4.327-0.062,4.983-0.185c2.051-0.41,3.076-1.422,3.076-3.035c0-1.586-1.148-2.584-3.445-2.994
		C85.971,27.452,84.221,27.384,81.473,27.384z"/>
	<path fill="#EEEEEE" d="M121.148,8.271v27.993h-3.076v-2.502h-0.184c-0.874,1.34-2.272,2.181-4.197,2.522
		c-0.805,0.15-2.518,0.226-5.138,0.226c-4.585,0-7.635-0.438-9.15-1.312c-1.406-0.807-2.375-2.058-2.907-3.753
		c-0.369-1.189-0.553-2.803-0.553-4.84c0-5.264,1.6-8.381,4.799-9.352c1.531-0.465,4.402-0.697,8.613-0.697
		c2.229,0,3.78,0.089,4.655,0.267c1.777,0.342,3.062,1.114,3.855,2.317h0.205V8.271H121.148z M109.069,19.263
		c-4.088,0-6.679,0.355-7.772,1.066c-1.381,0.902-2.071,2.994-2.071,6.275c0,3.158,0.697,5.202,2.092,6.132
		c1.066,0.711,3.315,1.066,6.747,1.066c4.32,0,7-0.355,8.039-1.066c1.381-0.943,2.071-2.939,2.071-5.988
		c0-3.541-0.772-5.735-2.317-6.583C114.764,19.563,112.501,19.263,109.069,19.263z"/>
	<path fill="#EEEEEE" d="M137.951,22.646h-3.199c-0.027-0.355-0.041-0.636-0.041-0.841c0-2.461,1.312-4.047,3.938-4.758
		c1.23-0.342,3.555-0.513,6.973-0.513c2.707,0,4.553,0.062,5.537,0.185c2.311,0.287,3.979,0.95,5.004,1.989
		c0.807,0.82,1.312,1.969,1.518,3.445c0.082,0.588,0.123,1.873,0.123,3.855v10.254h-3.057l0.062-2.276h-0.164
		c-0.902,1.244-2.236,2.023-4,2.338c-0.711,0.123-2.324,0.185-4.84,0.185c-2.844,0-4.566-0.021-5.168-0.062
		c-2.406-0.15-4.053-0.554-4.942-1.21c-1.217-0.902-1.825-2.447-1.825-4.635c0-2.762,0.882-4.519,2.646-5.271
		c1.066-0.451,3.493-0.677,7.28-0.677c3.486,0,5.373,0.014,5.66,0.041c2.516,0.232,4.191,0.916,5.025,2.051h0.266v-2.092
		c0-1.449-0.219-2.55-0.656-3.302c-0.533-0.889-1.449-1.477-2.748-1.764c-1.121-0.232-2.945-0.349-5.475-0.349
		c-2.775,0-4.416,0.048-4.922,0.144c-1.996,0.369-2.995,1.367-2.995,2.994V22.646z M145.826,27.384c-4.252,0-6.74,0.212-7.465,0.636
		c-0.807,0.479-1.21,1.36-1.21,2.646c0,1.271,0.479,2.133,1.435,2.584c0.779,0.369,3.404,0.554,7.875,0.554
		c2.666,0,4.328-0.062,4.984-0.185c2.051-0.41,3.076-1.422,3.076-3.035c0-1.586-1.148-2.584-3.445-2.994
		C150.324,27.452,148.574,27.384,145.826,27.384z"/>
	<path fill="#EEEEEE" d="M160.852,8.271h3.076v27.993h-3.076V8.271z"/>
	<path fill="#EEEEEE" d="M170.115,11.982h3.076v4.819h13.617v2.625h-13.617v8.449c0,1.682,0.047,2.81,0.143,3.384
		c0.191,1.148,0.965,1.894,2.318,2.235c0.766,0.205,1.887,0.308,3.363,0.308c2.393,0,3.889-0.444,4.49-1.333
		c0.383-0.561,0.574-1.818,0.574-3.773v-1.23h3.057v1.23c0,2.611-0.342,4.423-1.025,5.435c-1.066,1.586-3.514,2.379-7.342,2.379
		c-3.965,0-6.488-0.731-7.568-2.194c-0.725-0.984-1.086-2.789-1.086-5.414v-9.475h-4.779v-2.625h4.779V11.982z"/>
	<path fill="#EEEEEE" d="M210.344,30.255h3.221c-0.068,2.707-1.279,4.512-3.631,5.414c-1.449,0.561-3.82,0.841-7.115,0.841
		c-5.92,0-9.666-0.554-11.238-1.661c-1.969-1.395-2.953-4.149-2.953-8.265c0-5.182,1.564-8.285,4.695-9.311
		c1.49-0.479,3.986-0.718,7.486-0.718c2.762,0,4.682,0.082,5.762,0.246c2.311,0.342,4,1.121,5.066,2.338
		c0.848,0.971,1.414,2.249,1.701,3.835c0.15,0.889,0.24,2.304,0.268,4.245h-21.678c0.082,2.42,0.561,4.081,1.436,4.983
		c0.738,0.766,2.195,1.258,4.369,1.477c0.848,0.082,2.434,0.123,4.758,0.123c3.883,0,6.262-0.479,7.137-1.436
		C210.01,31.943,210.248,31.239,210.344,30.255z M210.201,24.595c-0.014-1.887-0.52-3.213-1.518-3.979
		c-1.189-0.902-3.842-1.354-7.957-1.354c-3.609,0-5.947,0.417-7.014,1.251c-0.971,0.752-1.531,2.112-1.682,4.081H210.201z"/>
	<path fill="#EEEEEE" d="M216.119,16.802h3.098v2.563c1.053-1.285,2.234-2.105,3.547-2.461c0.834-0.232,2.311-0.349,4.43-0.349
		c2.652,0,4.525,0.123,5.619,0.369c2.092,0.465,3.582,1.47,4.471,3.015c0.738-1.49,2.051-2.475,3.938-2.953
		c1.094-0.287,2.803-0.431,5.127-0.431c2.188,0,3.814,0.096,4.881,0.287c1.9,0.328,3.33,1.019,4.287,2.071
		c0.752,0.82,1.217,1.948,1.395,3.384c0.082,0.574,0.123,1.818,0.123,3.732v10.233h-3.076V25.312c0-2.393-0.355-3.938-1.066-4.635
		c-0.957-0.943-3.145-1.415-6.562-1.415c-3.568,0-5.838,0.567-6.809,1.702c-0.656,0.766-1.074,1.989-1.252,3.671
		c-0.082,0.725-0.123,2.044-0.123,3.958v7.67h-3.076V25.312c0-2.406-0.355-3.944-1.064-4.614c-1.012-0.957-3.209-1.436-6.596-1.436
		c-3.617,0-5.945,0.588-6.984,1.764c-0.613,0.697-0.996,1.914-1.146,3.65c-0.041,0.52-0.061,1.825-0.061,3.917v7.67h-3.098V16.802z"
		/>
	<path fill="#EEEEEE" d="M271.504,16.556c5.359,0,8.758,0.431,10.193,1.292c2.324,1.395,3.486,4.293,3.486,8.695
		c0,4.156-0.965,6.932-2.893,8.326c-1.531,1.094-4.676,1.641-9.434,1.641c-4.881,0-8.107-0.424-9.68-1.271
		c-1.477-0.793-2.494-2.058-3.055-3.794c-0.383-1.23-0.574-2.898-0.574-5.004c0-5.045,1.537-8.087,4.613-9.126
		C265.639,16.809,268.086,16.556,271.504,16.556z M271.996,19.263c-3.65,0-6.016,0.349-7.096,1.046
		c-1.381,0.889-2.07,2.994-2.07,6.316c0,1.668,0.143,2.939,0.43,3.814c0.438,1.326,1.266,2.222,2.482,2.687
		c1.176,0.451,3.465,0.677,6.869,0.677c3.828,0,6.289-0.39,7.383-1.169c1.271-0.916,1.908-2.98,1.908-6.193
		c0-1.764-0.164-3.097-0.492-3.999c-0.492-1.367-1.422-2.249-2.789-2.646C277.404,19.44,275.195,19.263,271.996,19.263z"/>
	<path fill="#EEEEEE" d="M287.289,29.476h3.281v0.554c0,0.943,0.074,1.613,0.225,2.01c0.246,0.602,0.732,1.032,1.457,1.292
		c0.875,0.314,3.432,0.472,7.67,0.472c4.389,0,6.965-0.287,7.73-0.861c0.615-0.465,0.924-1.183,0.924-2.153
		c0-1.354-0.561-2.249-1.682-2.687c-0.67-0.246-1.826-0.362-3.467-0.349c-1.053,0.014-4.012-0.021-8.879-0.103
		c-2.557-0.041-4.352-0.461-5.383-1.262c-1.033-0.799-1.549-2.156-1.549-4.07c0-2.023,0.646-3.49,1.938-4.398
		c1.293-0.91,4.658-1.364,10.1-1.364c2.598,0,4.479,0.082,5.641,0.246c2.434,0.328,4.102,1.053,5.004,2.174
		c0.561,0.697,0.84,1.976,0.84,3.835h-3.24c-0.014-1.176-0.211-1.955-0.594-2.338c-0.82-0.807-3.404-1.21-7.752-1.21
		c-4.225,0-6.781,0.294-7.67,0.882c-0.656,0.438-0.984,1.176-0.984,2.215c0,1.299,0.703,2.105,2.111,2.42
		c0.547,0.123,1.771,0.171,3.672,0.144c2.201-0.041,5.174,0.014,8.92,0.164c2.105,0.082,3.645,0.52,4.615,1.312
		c1.094,0.889,1.641,2.345,1.641,4.368c0,2.188-0.725,3.726-2.174,4.614c-1.23,0.752-4.52,1.128-9.865,1.128
		c-5.742,0-9.27-0.441-10.582-1.322c-1.312-0.883-1.969-2.444-1.969-4.687C287.268,30.337,287.275,29.995,287.289,29.476z"/>
	<path fill="#EEEEEE" d="M335.639,30.255h3.221c-0.068,2.707-1.279,4.512-3.631,5.414c-1.449,0.561-3.82,0.841-7.115,0.841
		c-5.92,0-9.666-0.554-11.238-1.661c-1.969-1.395-2.953-4.149-2.953-8.265c0-5.182,1.564-8.285,4.695-9.311
		c1.49-0.479,3.986-0.718,7.486-0.718c2.762,0,4.682,0.082,5.762,0.246c2.311,0.342,4,1.121,5.066,2.338
		c0.848,0.971,1.414,2.249,1.701,3.835c0.15,0.889,0.24,2.304,0.268,4.245h-21.678c0.082,2.42,0.561,4.081,1.436,4.983
		c0.738,0.766,2.195,1.258,4.369,1.477c0.848,0.082,2.434,0.123,4.758,0.123c3.883,0,6.262-0.479,7.137-1.436
		C335.305,31.943,335.543,31.239,335.639,30.255z M335.496,24.595c-0.014-1.887-0.52-3.213-1.518-3.979
		c-1.189-0.902-3.842-1.354-7.957-1.354c-3.609,0-5.947,0.417-7.014,1.251c-0.971,0.752-1.531,2.112-1.682,4.081H335.496z"/>
</g>
<g>
	<path fill="#B9B9B9" d="M17.72,40.09c0.168-0.023,0.358-0.044,0.57-0.061c0.212-0.016,0.43-0.027,0.654-0.035
		s0.442-0.014,0.654-0.019c0.212-0.004,0.402-0.006,0.57-0.006c0.744,0,1.38,0.104,1.908,0.312c0.528,0.209,0.956,0.5,1.284,0.877
		c0.328,0.375,0.568,0.824,0.72,1.344c0.152,0.52,0.228,1.092,0.228,1.716c0,0.567-0.072,1.116-0.216,1.644
		c-0.144,0.528-0.384,0.996-0.72,1.404s-0.778,0.736-1.326,0.984s-1.226,0.371-2.034,0.371c-0.128,0-0.298-0.004-0.51-0.012
		s-0.432-0.018-0.66-0.029s-0.446-0.024-0.654-0.036c-0.208-0.013-0.364-0.026-0.468-0.042V40.09z M20.3,41.434
		c-0.176,0-0.354,0.004-0.534,0.012c-0.18,0.008-0.314,0.021-0.402,0.037v5.627c0.032,0.008,0.086,0.015,0.162,0.019
		s0.158,0.008,0.246,0.012c0.088,0.005,0.172,0.009,0.252,0.013s0.14,0.006,0.18,0.006c0.464,0,0.85-0.082,1.158-0.246
		s0.552-0.383,0.732-0.654c0.18-0.271,0.306-0.586,0.378-0.941c0.072-0.356,0.108-0.723,0.108-1.099c0-0.328-0.032-0.658-0.096-0.99
		c-0.064-0.331-0.182-0.63-0.354-0.894s-0.406-0.48-0.702-0.648C21.132,41.518,20.756,41.434,20.3,41.434z"/>
	<path fill="#B9B9B9" d="M25.4,40.09h4.98v1.464h-3.336v1.956h3.036v1.464h-3.036v2.052h3.396v1.465H25.4V40.09z"/>
	<path fill="#B9B9B9" d="M35.204,46.234c0-0.256-0.094-0.465-0.282-0.625s-0.424-0.306-0.708-0.438
		c-0.284-0.133-0.592-0.268-0.924-0.408c-0.332-0.14-0.64-0.312-0.924-0.516c-0.284-0.204-0.52-0.458-0.708-0.762
		c-0.188-0.305-0.282-0.692-0.282-1.164c0-0.408,0.068-0.763,0.204-1.062c0.136-0.3,0.33-0.55,0.582-0.75
		c0.252-0.199,0.55-0.348,0.894-0.443c0.344-0.097,0.728-0.145,1.152-0.145c0.488,0,0.948,0.042,1.38,0.126s0.788,0.206,1.068,0.366
		l-0.516,1.38c-0.176-0.112-0.44-0.214-0.792-0.306s-0.732-0.139-1.14-0.139c-0.384,0-0.678,0.076-0.882,0.229
		c-0.204,0.152-0.306,0.355-0.306,0.611c0,0.24,0.094,0.44,0.282,0.6c0.188,0.16,0.424,0.309,0.708,0.445
		c0.284,0.135,0.592,0.275,0.924,0.42c0.332,0.144,0.64,0.317,0.924,0.521c0.284,0.204,0.52,0.456,0.708,0.756
		c0.188,0.301,0.282,0.674,0.282,1.122s-0.074,0.834-0.222,1.158c-0.148,0.323-0.356,0.594-0.624,0.81
		c-0.268,0.217-0.592,0.377-0.972,0.48s-0.798,0.156-1.254,0.156c-0.6,0-1.128-0.057-1.584-0.168
		c-0.456-0.112-0.792-0.225-1.008-0.336l0.528-1.404c0.088,0.048,0.202,0.1,0.342,0.156c0.14,0.056,0.298,0.107,0.474,0.155
		c0.176,0.048,0.362,0.089,0.558,0.12c0.196,0.032,0.398,0.049,0.606,0.049c0.488,0,0.862-0.082,1.122-0.246
		C35.073,46.82,35.204,46.57,35.204,46.234z"/>
	<path fill="#B9B9B9" d="M38.023,40.09h1.644v8.4h-1.644V40.09z"/>
	<path fill="#B9B9B9" d="M44.155,44.109h3.132v3.744c-0.336,0.28-0.738,0.484-1.206,0.612c-0.468,0.128-0.93,0.192-1.386,0.192
		c-0.536,0-1.034-0.084-1.494-0.252s-0.858-0.431-1.194-0.787c-0.336-0.355-0.6-0.81-0.792-1.361
		c-0.192-0.553-0.288-1.208-0.288-1.969c0-0.791,0.114-1.465,0.342-2.021c0.228-0.556,0.528-1.008,0.9-1.355
		c0.372-0.348,0.79-0.601,1.254-0.756c0.464-0.156,0.936-0.234,1.416-0.234s0.902,0.035,1.266,0.107
		c0.364,0.072,0.654,0.148,0.87,0.229l-0.336,1.38c-0.2-0.079-0.424-0.142-0.672-0.187c-0.248-0.043-0.564-0.065-0.948-0.065
		c-0.344,0-0.66,0.052-0.948,0.155c-0.288,0.105-0.538,0.275-0.75,0.511c-0.212,0.235-0.376,0.538-0.492,0.905
		c-0.116,0.369-0.174,0.816-0.174,1.345c0,0.504,0.056,0.938,0.168,1.302c0.112,0.364,0.268,0.664,0.468,0.9
		c0.2,0.236,0.434,0.41,0.702,0.521c0.268,0.112,0.554,0.168,0.858,0.168c0.208,0,0.412-0.025,0.612-0.078
		c0.2-0.051,0.368-0.129,0.504-0.233v-1.584l-1.812-0.192V44.109z"/>
	<path fill="#B9B9B9" d="M50.503,44.109l-0.66-1.32h-0.06l0.192,1.32v4.381h-1.56v-8.461h1.2l3.18,4.477l0.636,1.283h0.06
		l-0.192-1.283V40.09h1.56v8.46h-1.2L50.503,44.109z"/>
	<path fill="#B9B9B9" d="M56.215,40.09h4.98v1.464h-3.336v1.956h3.036v1.464h-3.036v2.052h3.396v1.465h-5.04V40.09z"/>
	<path fill="#B9B9B9" d="M62.395,40.174c0.184-0.031,0.382-0.062,0.594-0.09c0.212-0.028,0.424-0.051,0.636-0.066
		c0.212-0.016,0.418-0.027,0.618-0.035c0.2-0.009,0.384-0.013,0.552-0.013c0.392,0,0.778,0.036,1.158,0.108s0.72,0.195,1.02,0.371
		c0.3,0.177,0.54,0.418,0.72,0.727s0.27,0.693,0.27,1.158c0,0.688-0.16,1.248-0.48,1.68c-0.32,0.432-0.748,0.732-1.284,0.9
		l0.588,0.371l1.92,3.205h-1.896l-1.908-3.289l-0.864-0.155v3.444h-1.644V40.174z M64.915,41.434c-0.168,0-0.334,0.004-0.498,0.012
		c-0.164,0.008-0.29,0.024-0.378,0.049v2.436h0.696c0.456,0,0.82-0.104,1.092-0.312c0.272-0.207,0.408-0.551,0.408-1.031
		c0-0.36-0.112-0.643-0.336-0.846C65.675,41.535,65.347,41.434,64.915,41.434z"/>
	<path fill="#B9B9B9" d="M72.283,43.785h1.944v-2.027h1.404v2.027h1.956v1.32h-1.956v2.053h-1.404v-2.053h-1.944V43.785z"/>
	<path fill="#B9B9B9" d="M81.679,40.09c0.168-0.023,0.358-0.044,0.57-0.061c0.212-0.016,0.43-0.027,0.654-0.035
		s0.442-0.014,0.654-0.019c0.212-0.004,0.402-0.006,0.57-0.006c0.744,0,1.38,0.104,1.908,0.312c0.528,0.209,0.956,0.5,1.284,0.877
		c0.328,0.375,0.568,0.824,0.72,1.344c0.152,0.52,0.228,1.092,0.228,1.716c0,0.567-0.072,1.116-0.216,1.644
		c-0.144,0.528-0.384,0.996-0.72,1.404s-0.778,0.736-1.326,0.984s-1.226,0.371-2.034,0.371c-0.128,0-0.298-0.004-0.51-0.012
		s-0.432-0.018-0.66-0.029s-0.446-0.024-0.654-0.036c-0.208-0.013-0.364-0.026-0.468-0.042V40.09z M84.258,41.434
		c-0.176,0-0.354,0.004-0.534,0.012c-0.18,0.008-0.314,0.021-0.402,0.037v5.627c0.032,0.008,0.086,0.015,0.162,0.019
		s0.158,0.008,0.246,0.012c0.088,0.005,0.172,0.009,0.252,0.013s0.14,0.006,0.18,0.006c0.464,0,0.85-0.082,1.158-0.246
		s0.552-0.383,0.732-0.654c0.18-0.271,0.306-0.586,0.378-0.941c0.072-0.356,0.108-0.723,0.108-1.099c0-0.328-0.032-0.658-0.096-0.99
		c-0.064-0.331-0.182-0.63-0.354-0.894s-0.406-0.48-0.702-0.648C85.09,41.518,84.714,41.434,84.258,41.434z"/>
	<path fill="#B9B9B9" d="M89.358,40.09h4.98v1.464h-3.336v1.956h3.036v1.464h-3.036v2.052h3.396v1.465h-5.04V40.09z"/>
	<path fill="#B9B9B9" d="M98.298,45.021l0.216,1.428h0.06l0.24-1.439l1.608-4.92h1.728l-3.12,8.46h-1.176l-3.144-8.46h1.908
		L98.298,45.021z"/>
	<path fill="#B9B9B9" d="M102.678,40.09h4.98v1.464h-3.336v1.956h3.036v1.464h-3.036v2.052h3.396v1.465h-5.04V40.09z"/>
	<path fill="#B9B9B9" d="M114.173,48.49h-5.316v-8.4h1.644v6.936h3.672V48.49z"/>
	<path fill="#B9B9B9" d="M113.561,44.289c0-1.399,0.308-2.478,0.924-3.233s1.496-1.134,2.64-1.134c0.6,0,1.124,0.104,1.572,0.312
		c0.448,0.207,0.82,0.504,1.116,0.887c0.296,0.385,0.516,0.845,0.66,1.381c0.144,0.535,0.216,1.132,0.216,1.787
		c0,1.4-0.31,2.479-0.93,3.234c-0.62,0.756-1.498,1.135-2.634,1.135c-0.608,0-1.136-0.104-1.584-0.312
		c-0.448-0.208-0.818-0.504-1.11-0.889c-0.292-0.383-0.51-0.844-0.654-1.379C113.633,45.542,113.561,44.945,113.561,44.289z
		 M115.289,44.289c0,0.425,0.036,0.814,0.108,1.171s0.182,0.661,0.33,0.918c0.148,0.256,0.338,0.456,0.57,0.6
		s0.508,0.216,0.828,0.216c0.584,0,1.036-0.228,1.356-0.684s0.48-1.195,0.48-2.221c0-0.407-0.034-0.787-0.102-1.139
		c-0.068-0.353-0.174-0.66-0.318-0.925c-0.144-0.264-0.332-0.47-0.564-0.618c-0.232-0.147-0.516-0.222-0.852-0.222
		c-0.584,0-1.036,0.233-1.356,0.702C115.449,42.556,115.289,43.29,115.289,44.289z"/>
	<path fill="#B9B9B9" d="M121.781,40.174c0.336-0.064,0.706-0.114,1.11-0.15c0.404-0.035,0.806-0.054,1.206-0.054
		c0.416,0,0.834,0.034,1.254,0.103c0.42,0.067,0.798,0.203,1.134,0.408c0.336,0.203,0.61,0.487,0.822,0.852
		c0.212,0.363,0.318,0.838,0.318,1.422c0,0.527-0.092,0.975-0.276,1.338c-0.184,0.364-0.428,0.662-0.732,0.895
		c-0.304,0.231-0.65,0.399-1.038,0.504c-0.388,0.104-0.79,0.155-1.206,0.155c-0.04,0-0.104,0-0.192,0
		c-0.088,0-0.18-0.001-0.276-0.006c-0.096-0.004-0.19-0.01-0.282-0.019c-0.092-0.008-0.158-0.016-0.198-0.023v2.893h-1.644V40.174z
		 M124.229,41.386c-0.16,0-0.312,0.006-0.456,0.019c-0.144,0.012-0.26,0.025-0.348,0.041v2.725c0.032,0.008,0.08,0.016,0.144,0.023
		s0.132,0.015,0.204,0.019c0.072,0.004,0.142,0.006,0.21,0.006s0.118,0,0.15,0c0.216,0,0.43-0.021,0.642-0.06
		c0.212-0.041,0.402-0.114,0.57-0.223c0.168-0.107,0.302-0.258,0.402-0.449c0.1-0.192,0.15-0.445,0.15-0.756
		c0-0.265-0.048-0.482-0.144-0.654c-0.096-0.172-0.222-0.311-0.378-0.414c-0.156-0.104-0.334-0.176-0.534-0.217
		C124.641,41.406,124.437,41.386,124.229,41.386z"/>
	<path fill="#B9B9B9" d="M128.561,40.09h4.98v1.464h-3.336v1.956h3.036v1.464h-3.036v2.052h3.396v1.465h-5.04V40.09z"/>
	<path fill="#B9B9B9" d="M134.741,40.174c0.184-0.031,0.382-0.062,0.594-0.09c0.212-0.028,0.424-0.051,0.636-0.066
		c0.212-0.016,0.418-0.027,0.618-0.035c0.2-0.009,0.384-0.013,0.552-0.013c0.392,0,0.778,0.036,1.158,0.108
		c0.379,0.072,0.72,0.195,1.02,0.371c0.301,0.177,0.54,0.418,0.721,0.727c0.18,0.309,0.27,0.693,0.27,1.158
		c0,0.688-0.16,1.248-0.48,1.68s-0.748,0.732-1.283,0.9l0.588,0.371l1.92,3.205h-1.896l-1.908-3.289l-0.864-0.155v3.444h-1.644
		V40.174z M137.261,41.434c-0.168,0-0.334,0.004-0.498,0.012c-0.164,0.008-0.29,0.024-0.378,0.049v2.436h0.696
		c0.456,0,0.82-0.104,1.091-0.312c0.272-0.207,0.408-0.551,0.408-1.031c0-0.36-0.111-0.643-0.336-0.846
		C138.021,41.535,137.692,41.434,137.261,41.434z"/>
	<path fill="#B9B9B9" d="M144.629,43.785h1.943v-2.027h1.404v2.027h1.956v1.32h-1.956v2.053h-1.404v-2.053h-1.943V43.785z"/>
	<path fill="#B9B9B9" d="M160.541,44.134l0.18-1.668h-0.072l-0.516,1.344l-1.789,3.132h-0.527l-1.885-3.144l-0.527-1.332h-0.061
		l0.24,1.655v4.369h-1.561v-8.4h1.5l2.244,3.84l0.396,0.96h0.049l0.359-0.983l2.123-3.816h1.488v8.4h-1.643V44.134z"/>
	<path fill="#B9B9B9" d="M167.68,46.63h-2.58l-0.637,1.86h-1.643l3.023-8.461h1.213l3.023,8.461h-1.729L167.68,46.63z M165.52,45.31
		h1.801l-0.625-1.872l-0.252-1.32h-0.059l-0.254,1.332L165.52,45.31z"/>
	<path fill="#B9B9B9" d="M172.791,44.902h-0.432v3.588h-1.645v-8.4h1.645v3.72l0.385-0.168l2.316-3.552h1.871l-2.447,3.527
		l-0.648,0.457l0.672,0.467l2.795,3.949h-2.027L172.791,44.902z"/>
	<path fill="#B9B9B9" d="M178.072,40.09h4.98v1.464h-3.336v1.956h3.035v1.464h-3.035v2.052h3.395v1.465h-5.039V40.09z"/>
	<path fill="#B9B9B9" d="M184.252,40.174c0.184-0.031,0.381-0.062,0.594-0.09c0.211-0.028,0.424-0.051,0.637-0.066
		c0.211-0.016,0.418-0.027,0.617-0.035c0.199-0.009,0.385-0.013,0.553-0.013c0.391,0,0.777,0.036,1.158,0.108
		c0.379,0.072,0.719,0.195,1.02,0.371c0.299,0.177,0.539,0.418,0.719,0.727c0.182,0.309,0.271,0.693,0.271,1.158
		c0,0.688-0.16,1.248-0.48,1.68s-0.748,0.732-1.283,0.9l0.588,0.371l1.92,3.205h-1.896l-1.908-3.289l-0.863-0.155v3.444h-1.645
		V40.174z M186.771,41.434c-0.168,0-0.334,0.004-0.498,0.012s-0.289,0.024-0.377,0.049v2.436h0.695c0.455,0,0.82-0.104,1.092-0.312
		c0.271-0.207,0.408-0.551,0.408-1.031c0-0.36-0.111-0.643-0.336-0.846C187.531,41.535,187.203,41.434,186.771,41.434z"/>
	<path fill="#B9B9B9" d="M193.924,44.289c0-1.399,0.309-2.478,0.924-3.233c0.617-0.756,1.496-1.134,2.641-1.134
		c0.6,0,1.123,0.104,1.572,0.312c0.447,0.207,0.82,0.504,1.115,0.887c0.297,0.385,0.516,0.845,0.66,1.381
		c0.145,0.535,0.217,1.132,0.217,1.787c0,1.4-0.311,2.479-0.93,3.234c-0.621,0.756-1.498,1.135-2.635,1.135
		c-0.607,0-1.137-0.104-1.584-0.312s-0.818-0.504-1.109-0.889c-0.293-0.383-0.51-0.844-0.654-1.379
		C193.996,45.542,193.924,44.945,193.924,44.289z M195.652,44.289c0,0.425,0.035,0.814,0.107,1.171s0.182,0.661,0.33,0.918
		c0.148,0.256,0.338,0.456,0.57,0.6s0.508,0.216,0.828,0.216c0.584,0,1.035-0.228,1.355-0.684s0.48-1.195,0.48-2.221
		c0-0.407-0.033-0.787-0.102-1.139c-0.068-0.353-0.174-0.66-0.318-0.925c-0.145-0.264-0.332-0.47-0.564-0.618
		c-0.232-0.147-0.516-0.222-0.852-0.222c-0.584,0-1.037,0.233-1.355,0.702C195.812,42.556,195.652,43.29,195.652,44.289z"/>
	<path fill="#B9B9B9" d="M202.145,40.09h4.98v1.464h-3.336v2.076h3.07v1.464h-3.07v3.396h-1.645V40.09z"/>
	<path fill="#B9B9B9" d="M216.639,41.554h-2.447v6.937h-1.645v-6.937h-2.459V40.09h6.551V41.554z"/>
	<path fill="#B9B9B9" d="M222.123,44.974h-3.07v3.517h-1.645v-8.4h1.645v3.42h3.07v-3.42h1.645v8.4h-1.645V44.974z"/>
	<path fill="#B9B9B9" d="M225.303,40.09h1.645v8.4h-1.645V40.09z"/>
	<path fill="#B9B9B9" d="M230.559,44.109l-0.66-1.32h-0.061l0.193,1.32v4.381h-1.561v-8.461h1.199l3.18,4.477l0.637,1.283h0.061
		l-0.193-1.283V40.09h1.561v8.46h-1.199L230.559,44.109z"/>
	<path fill="#B9B9B9" d="M239.234,44.109h3.133v3.744c-0.336,0.28-0.738,0.484-1.205,0.612c-0.469,0.128-0.932,0.192-1.387,0.192
		c-0.537,0-1.035-0.084-1.494-0.252c-0.461-0.168-0.857-0.431-1.193-0.787c-0.336-0.355-0.602-0.81-0.793-1.361
		c-0.191-0.553-0.287-1.208-0.287-1.969c0-0.791,0.113-1.465,0.342-2.021c0.229-0.556,0.527-1.008,0.9-1.355
		c0.371-0.348,0.789-0.601,1.254-0.756c0.463-0.156,0.936-0.234,1.416-0.234c0.479,0,0.9,0.035,1.266,0.107
		c0.363,0.072,0.654,0.148,0.869,0.229l-0.336,1.38c-0.199-0.079-0.424-0.142-0.672-0.187c-0.248-0.043-0.564-0.065-0.947-0.065
		c-0.344,0-0.66,0.052-0.949,0.155c-0.287,0.105-0.537,0.275-0.75,0.511c-0.211,0.235-0.375,0.538-0.49,0.905
		c-0.117,0.369-0.176,0.816-0.176,1.345c0,0.504,0.057,0.938,0.168,1.302c0.113,0.364,0.27,0.664,0.469,0.9s0.434,0.41,0.703,0.521
		c0.268,0.112,0.553,0.168,0.857,0.168c0.207,0,0.412-0.025,0.611-0.078c0.199-0.051,0.369-0.129,0.504-0.233v-1.584l-1.812-0.192
		V44.109z"/>
	<path fill="#B9B9B9" d="M247.117,46.234c0-0.256-0.094-0.465-0.281-0.625s-0.424-0.306-0.709-0.438
		c-0.283-0.133-0.592-0.268-0.924-0.408c-0.332-0.14-0.639-0.312-0.924-0.516c-0.283-0.204-0.52-0.458-0.707-0.762
		c-0.188-0.305-0.283-0.692-0.283-1.164c0-0.408,0.068-0.763,0.205-1.062c0.135-0.3,0.33-0.55,0.582-0.75
		c0.252-0.199,0.549-0.348,0.895-0.443c0.344-0.097,0.727-0.145,1.15-0.145c0.488,0,0.949,0.042,1.381,0.126
		s0.787,0.206,1.068,0.366l-0.516,1.38c-0.178-0.112-0.441-0.214-0.793-0.306s-0.732-0.139-1.141-0.139
		c-0.383,0-0.678,0.076-0.881,0.229c-0.205,0.152-0.307,0.355-0.307,0.611c0,0.24,0.094,0.44,0.283,0.6
		c0.188,0.16,0.424,0.309,0.707,0.445c0.283,0.135,0.592,0.275,0.924,0.42c0.332,0.144,0.641,0.317,0.924,0.521
		c0.285,0.204,0.52,0.456,0.709,0.756c0.188,0.301,0.281,0.674,0.281,1.122s-0.074,0.834-0.223,1.158
		c-0.146,0.323-0.355,0.594-0.623,0.81c-0.268,0.217-0.592,0.377-0.973,0.48c-0.379,0.104-0.797,0.156-1.254,0.156
		c-0.6,0-1.127-0.057-1.584-0.168c-0.455-0.112-0.791-0.225-1.008-0.336l0.527-1.404c0.088,0.048,0.203,0.1,0.344,0.156
		c0.139,0.056,0.297,0.107,0.473,0.155s0.363,0.089,0.559,0.12c0.195,0.032,0.398,0.049,0.605,0.049
		c0.488,0,0.863-0.082,1.123-0.246S247.117,46.57,247.117,46.234z"/>
</g>
</svg>
