<?xml version="1.0" encoding="utf-8"?>
<!-- Generator: Adobe Illustrator 16.0.0, SVG Export Plug-In . SVG Version: 6.00 Build 0)  -->
<!DOCTYPE svg PUBLIC "-//W3C//DTD SVG 1.1//EN" "http://www.w3.org/Graphics/SVG/1.1/DTD/svg11.dtd">
<svg version="1.1" id="Layer_2" xmlns="http://www.w3.org/2000/svg" xmlns:xlink="http://www.w3.org/1999/xlink" x="0px" y="0px"
	 width="300px" height="40px" viewBox="15 3 300 40" enable-background="new 15 3 300 40" xml:space="preserve">
<g>
	<path fill="#EEEEEE" d="M35.58,22.926h2.892c-0.062,3.515-1.493,5.607-4.29,6.276c-1.185,0.288-2.937,0.435-5.254,0.435
		c-2.482,0-4.246-0.051-5.292-0.151c-2.369-0.213-4.039-0.686-5.009-1.417C16.876,26.745,16,24.219,16,20.489
		c0-4.75,1.449-7.604,4.347-8.562c1.399-0.453,3.692-0.68,6.88-0.68c2.292,0,3.969,0.069,5.027,0.208
		c2.154,0.277,3.678,0.875,4.573,1.795c0.945,0.958,1.462,2.501,1.55,4.63H35.41c-0.051-1.991-0.996-3.25-2.835-3.78
		c-0.819-0.24-2.602-0.359-5.349-0.359c-3.226,0-5.336,0.327-6.331,0.982c-1.248,0.819-1.871,2.81-1.871,5.972
		c0,2.999,0.743,4.876,2.23,5.631c1.058,0.542,3.434,0.812,7.125,0.812c2.507,0,4.145-0.139,4.914-0.415
		C34.742,26.172,35.504,24.905,35.58,22.926z"/>
	<path fill="#EEEEEE" d="M40.808,3.613h2.835V14.14h0.227c0.718-1.348,2.072-2.217,4.063-2.607c0.958-0.189,2.639-0.284,5.046-0.284
		c4.46,0,7.314,0.648,8.561,1.946c0.718,0.755,1.178,1.846,1.38,3.27c0.088,0.643,0.133,1.853,0.133,3.629v9.317h-2.835v-8.429
		c0-1.575-0.02-2.558-0.057-2.948c-0.126-1.197-0.441-2.11-0.944-2.741c-0.844-1.033-3.043-1.55-6.596-1.55
		c-4.082,0-6.702,0.655-7.861,1.965c-0.555,0.618-0.901,1.449-1.04,2.496c-0.051,0.428-0.076,1.354-0.076,2.778v8.429h-2.835
		L40.808,3.613L40.808,3.613z"/>
	<path fill="#EEEEEE" d="M68.849,16.86H65.9c-0.024-0.327-0.038-0.586-0.038-0.775c0-2.269,1.209-3.73,3.629-4.385
		c1.134-0.315,3.276-0.472,6.426-0.472c2.495,0,4.196,0.057,5.103,0.17c2.129,0.265,3.667,0.875,4.611,1.833
		c0.744,0.756,1.209,1.814,1.399,3.175c0.076,0.542,0.113,1.726,0.113,3.553v9.45h-2.816l0.057-2.098h-0.151
		c-0.832,1.147-2.06,1.864-3.686,2.155c-0.655,0.113-2.142,0.17-4.46,0.17c-2.621,0-4.208-0.019-4.762-0.057
		c-2.218-0.139-3.736-0.512-4.555-1.116c-1.122-0.831-1.682-2.254-1.682-4.271c0-2.545,0.812-4.164,2.438-4.857
		c0.982-0.416,3.219-0.624,6.708-0.624c3.213,0,4.952,0.013,5.216,0.038c2.319,0.213,3.861,0.844,4.63,1.89h0.246v-1.928
		c0-1.335-0.202-2.35-0.604-3.043c-0.491-0.82-1.335-1.361-2.532-1.626c-1.033-0.214-2.715-0.321-5.047-0.321
		c-2.557,0-4.069,0.044-4.536,0.132c-1.839,0.34-2.759,1.26-2.759,2.759v0.248H68.849z M76.106,21.227
		c-3.918,0-6.211,0.195-6.879,0.586c-0.744,0.441-1.115,1.253-1.115,2.438c0,1.172,0.441,1.966,1.323,2.382
		c0.718,0.34,3.137,0.511,7.257,0.511c2.457,0,3.988-0.058,4.592-0.171c1.89-0.378,2.835-1.311,2.835-2.797
		c0-1.462-1.058-2.381-3.175-2.76C80.251,21.29,78.639,21.227,76.106,21.227z"/>
	<path fill="#EEEEEE" d="M112.669,3.613V29.41h-2.835v-2.306h-0.169c-0.806,1.234-2.094,2.01-3.868,2.324
		c-0.742,0.138-2.321,0.208-4.735,0.208c-4.226,0-7.036-0.403-8.433-1.209c-1.295-0.744-2.188-1.896-2.679-3.458
		c-0.34-1.097-0.51-2.583-0.51-4.46c0-4.852,1.475-7.724,4.423-8.619c1.411-0.428,4.057-0.642,7.937-0.642
		c2.054,0,3.483,0.082,4.29,0.246c1.638,0.315,2.822,1.026,3.553,2.135h0.188V3.613H112.669z M101.537,13.743
		c-3.767,0-6.155,0.327-7.162,0.982c-1.272,0.831-1.908,2.759-1.908,5.782c0,2.911,0.642,4.795,1.927,5.652
		c0.982,0.655,3.055,0.981,6.218,0.981c3.981,0,6.451-0.326,7.408-0.981c1.272-0.869,1.908-2.709,1.908-5.519
		c0-3.263-0.711-5.285-2.135-6.067C106.786,14.019,104.7,13.743,101.537,13.743z"/>
	<path fill="#EEEEEE" d="M128.154,16.86h-2.949c-0.024-0.327-0.038-0.586-0.038-0.775c0-2.269,1.209-3.73,3.629-4.385
		c1.134-0.315,3.276-0.472,6.426-0.472c2.495,0,4.196,0.057,5.103,0.17c2.129,0.265,3.667,0.875,4.611,1.833
		c0.744,0.756,1.209,1.814,1.399,3.175c0.076,0.542,0.113,1.726,0.113,3.553v9.45h-2.817l0.057-2.098h-0.151
		c-0.831,1.147-2.061,1.864-3.687,2.155c-0.655,0.113-2.142,0.17-4.46,0.17c-2.621,0-4.208-0.019-4.763-0.057
		c-2.217-0.139-3.735-0.512-4.555-1.116c-1.122-0.831-1.682-2.254-1.682-4.271c0-2.545,0.812-4.164,2.438-4.857
		c0.982-0.416,3.219-0.624,6.709-0.624c3.212,0,4.951,0.013,5.216,0.038c2.319,0.213,3.862,0.844,4.631,1.89h0.245v-1.928
		c0-1.335-0.202-2.35-0.604-3.043c-0.491-0.82-1.335-1.361-2.533-1.626c-1.033-0.214-2.714-0.321-5.045-0.321
		c-2.558,0-4.07,0.044-4.537,0.132c-1.839,0.34-2.759,1.26-2.759,2.759V16.86z M135.411,21.227c-3.918,0-6.211,0.195-6.879,0.586
		c-0.744,0.441-1.115,1.253-1.115,2.438c0,1.172,0.441,1.966,1.323,2.382c0.718,0.34,3.137,0.511,7.257,0.511
		c2.457,0,3.989-0.058,4.593-0.171c1.89-0.378,2.835-1.311,2.835-2.797c0-1.462-1.058-2.381-3.175-2.76
		C139.557,21.29,137.944,21.227,135.411,21.227z"/>
	<path fill="#EEEEEE" d="M149.259,3.613h2.834V29.41h-2.834V3.613z"/>
	<path fill="#EEEEEE" d="M157.795,7.033h2.835v4.441h12.549v2.419H160.63v7.787c0,1.55,0.043,2.59,0.131,3.119
		c0.177,1.058,0.889,1.744,2.137,2.06c0.706,0.189,1.739,0.283,3.1,0.283c2.204,0,3.583-0.409,4.137-1.229
		c0.354-0.517,0.528-1.676,0.528-3.477v-1.133h2.818v1.133c0,2.407-0.316,4.077-0.945,5.009c-0.982,1.461-3.238,2.192-6.766,2.192
		c-3.654,0-5.979-0.674-6.975-2.021c-0.668-0.907-1.001-2.57-1.001-4.989v-8.732h-4.404v-2.419h4.404V7.033L157.795,7.033z"/>
	<path fill="#EEEEEE" d="M194.868,23.872h2.968c-0.062,2.495-1.178,4.159-3.346,4.989c-1.336,0.518-3.521,0.775-6.558,0.775
		c-5.455,0-8.907-0.511-10.355-1.53c-1.814-1.286-2.721-3.823-2.721-7.617c0-4.775,1.439-7.635,4.325-8.581
		c1.374-0.441,3.674-0.662,6.899-0.662c2.545,0,4.315,0.076,5.31,0.227c2.13,0.315,3.687,1.033,4.669,2.155
		c0.781,0.895,1.304,2.073,1.568,3.534c0.138,0.819,0.221,2.123,0.246,3.912h-19.978c0.075,2.23,0.517,3.761,1.323,4.593
		c0.681,0.705,2.023,1.159,4.026,1.361c0.782,0.075,2.243,0.112,4.386,0.112c3.578,0,5.771-0.44,6.576-1.322
		C194.561,25.429,194.78,24.779,194.868,23.872z M194.736,18.656c-0.012-1.739-0.479-2.961-1.398-3.667
		c-1.096-0.832-3.541-1.248-7.333-1.248c-3.326,0-5.48,0.384-6.464,1.153c-0.895,0.693-1.41,1.946-1.551,3.761L194.736,18.656
		L194.736,18.656z"/>
	<path fill="#EEEEEE" d="M200.19,11.475h2.854v2.362c0.971-1.185,2.06-1.94,3.269-2.269c0.769-0.214,2.131-0.321,4.083-0.321
		c2.444,0,4.17,0.113,5.178,0.34c1.928,0.429,3.302,1.355,4.121,2.779c0.68-1.373,1.89-2.281,3.63-2.722
		c1.008-0.264,2.583-0.397,4.725-0.397c2.016,0,3.515,0.088,4.498,0.264c1.75,0.302,3.068,0.939,3.951,1.909
		c0.692,0.756,1.121,1.795,1.285,3.119c0.075,0.529,0.113,1.676,0.113,3.439v9.43h-2.835V19.317c0-2.206-0.328-3.629-0.983-4.272
		c-0.882-0.869-2.897-1.304-6.047-1.304c-3.287,0-5.38,0.522-6.275,1.568c-0.604,0.706-0.989,1.833-1.153,3.383
		c-0.075,0.668-0.113,1.885-0.113,3.647v7.07h-2.835V19.317c0-2.217-0.327-3.635-0.98-4.252c-0.932-0.882-2.957-1.324-6.078-1.324
		c-3.333,0-5.479,0.542-6.437,1.625c-0.564,0.643-0.917,1.764-1.056,3.364c-0.038,0.479-0.056,1.682-0.056,3.609v7.07h-2.855V11.475
		H200.19z"/>
	<path fill="#EEEEEE" d="M251.23,11.248c4.939,0,8.071,0.397,9.395,1.19c2.142,1.286,3.213,3.957,3.213,8.013
		c0,3.83-0.891,6.388-2.667,7.673c-1.411,1.008-4.31,1.512-8.694,1.512c-4.498,0-7.471-0.391-8.921-1.171
		c-1.36-0.731-2.298-1.896-2.814-3.496c-0.354-1.134-0.529-2.671-0.529-4.612c0-4.65,1.416-7.453,4.251-8.411
		C245.826,11.481,248.081,11.248,251.23,11.248z M251.685,13.743c-3.364,0-5.544,0.321-6.539,0.964
		c-1.272,0.819-1.908,2.759-1.908,5.821c0,1.537,0.132,2.708,0.396,3.516c0.402,1.222,1.166,2.047,2.287,2.476
		c1.084,0.415,3.193,0.623,6.331,0.623c3.527,0,5.795-0.358,6.804-1.077c1.171-0.844,1.758-2.746,1.758-5.707
		c0-1.626-0.151-2.854-0.453-3.686c-0.454-1.259-1.311-2.072-2.57-2.438C256.669,13.906,254.633,13.743,251.685,13.743z"/>
	<path fill="#EEEEEE" d="M265.778,23.155h3.023v0.51c0,0.869,0.068,1.486,0.207,1.853c0.227,0.555,0.675,0.951,1.343,1.19
		c0.807,0.29,3.162,0.436,7.068,0.436c4.044,0,6.418-0.265,7.124-0.794c0.566-0.428,0.852-1.091,0.852-1.984
		c0-1.248-0.518-2.072-1.55-2.476c-0.618-0.227-1.683-0.334-3.195-0.322c-0.971,0.013-3.697-0.02-8.183-0.095
		c-2.356-0.038-4.011-0.425-4.961-1.163c-0.952-0.736-1.428-1.987-1.428-3.751c0-1.864,0.595-3.216,1.787-4.053
		c1.191-0.839,4.291-1.257,9.307-1.257c2.395,0,4.128,0.076,5.198,0.226c2.243,0.303,3.781,0.971,4.611,2.004
		c0.518,0.642,0.774,1.821,0.774,3.534h-2.985c-0.014-1.084-0.194-1.802-0.548-2.154c-0.755-0.744-3.138-1.115-7.144-1.115
		c-3.894,0-6.25,0.271-7.068,0.812c-0.605,0.404-0.907,1.084-0.907,2.042c0,1.197,0.647,1.939,1.945,2.23
		c0.504,0.113,1.633,0.157,3.384,0.132c2.028-0.038,4.769,0.013,8.221,0.151c1.94,0.076,3.359,0.48,4.253,1.209
		c1.008,0.82,1.513,2.162,1.513,4.026c0,2.016-0.669,3.434-2.004,4.251c-1.133,0.693-4.165,1.04-9.092,1.04
		c-5.291,0-8.542-0.406-9.752-1.218c-1.208-0.813-1.814-2.253-1.814-4.32C265.758,23.947,265.766,23.633,265.778,23.155z"/>
	<path fill="#EEEEEE" d="M310.335,23.872h2.969c-0.062,2.495-1.179,4.159-3.347,4.989c-1.335,0.518-3.52,0.775-6.557,0.775
		c-5.455,0-8.907-0.511-10.356-1.53c-1.814-1.286-2.722-3.823-2.722-7.617c0-4.775,1.442-7.635,4.327-8.581
		c1.373-0.441,3.673-0.662,6.898-0.662c2.546,0,4.315,0.076,5.311,0.227c2.129,0.315,3.687,1.033,4.668,2.155
		c0.782,0.895,1.304,2.073,1.568,3.534c0.138,0.819,0.221,2.123,0.247,3.912h-19.979c0.076,2.23,0.518,3.761,1.324,4.593
		c0.681,0.705,2.022,1.159,4.026,1.361c0.781,0.075,2.242,0.112,4.385,0.112c3.578,0,5.771-0.44,6.576-1.322
		C310.027,25.429,310.247,24.779,310.335,23.872z M310.203,18.656c-0.012-1.739-0.479-2.961-1.399-3.667
		c-1.095-0.832-3.54-1.248-7.332-1.248c-3.326,0-5.48,0.384-6.464,1.153c-0.895,0.693-1.411,1.946-1.55,3.761L310.203,18.656
		L310.203,18.656z"/>
</g>
<g>
	<path fill="#B9B9B9" d="M17.354,32.936c0.155-0.021,0.33-0.04,0.525-0.056c0.195-0.015,0.396-0.025,0.603-0.032
		c0.207-0.007,0.408-0.013,0.603-0.019c0.195-0.003,0.371-0.005,0.525-0.005c0.686,0,1.271,0.097,1.758,0.288
		c0.486,0.192,0.881,0.461,1.183,0.808c0.302,0.346,0.524,0.76,0.664,1.238c0.14,0.479,0.21,1.007,0.21,1.582
		c0,0.522-0.067,1.028-0.2,1.515c-0.132,0.487-0.354,0.918-0.663,1.294s-0.717,0.679-1.222,0.907
		c-0.505,0.229-1.13,0.342-1.874,0.342c-0.119,0-0.275-0.004-0.47-0.011s-0.398-0.018-0.608-0.027
		c-0.21-0.011-0.411-0.021-0.603-0.033c-0.192-0.012-0.335-0.024-0.431-0.038V32.936z M19.731,34.174
		c-0.162,0-0.327,0.004-0.492,0.011c-0.166,0.009-0.289,0.021-0.371,0.034v5.186c0.03,0.009,0.08,0.015,0.149,0.019
		c0.07,0.004,0.146,0.007,0.227,0.011c0.081,0.005,0.159,0.009,0.232,0.013c0.074,0.003,0.129,0.005,0.166,0.005
		c0.427,0,0.783-0.075,1.067-0.227c0.284-0.151,0.509-0.353,0.675-0.603c0.166-0.25,0.282-0.54,0.349-0.868
		c0.066-0.327,0.099-0.666,0.099-1.012c0-0.302-0.03-0.606-0.088-0.912c-0.059-0.306-0.168-0.581-0.326-0.824
		c-0.159-0.243-0.374-0.443-0.647-0.598C20.498,34.252,20.151,34.174,19.731,34.174z"/>
	<path fill="#B9B9B9" d="M24.431,32.936h4.589v1.351h-3.074v1.802h2.798v1.35h-2.798v1.89h3.13v1.351h-4.645V32.936z"/>
	<path fill="#B9B9B9" d="M33.466,38.599c0-0.236-0.087-0.429-0.26-0.576c-0.173-0.147-0.391-0.282-0.653-0.404
		c-0.261-0.122-0.545-0.247-0.851-0.375c-0.306-0.13-0.59-0.288-0.852-0.477c-0.262-0.188-0.479-0.422-0.652-0.702
		c-0.173-0.281-0.26-0.638-0.26-1.073c0-0.375,0.062-0.702,0.188-0.979s0.304-0.507,0.537-0.69s0.507-0.32,0.824-0.408
		c0.317-0.09,0.671-0.134,1.062-0.134c0.45,0,0.874,0.038,1.272,0.116c0.398,0.077,0.726,0.189,0.984,0.337l-0.475,1.271
		c-0.163-0.103-0.405-0.196-0.73-0.282c-0.324-0.085-0.674-0.128-1.051-0.128c-0.354,0-0.625,0.07-0.812,0.212
		c-0.188,0.14-0.282,0.326-0.282,0.562c0,0.221,0.086,0.405,0.26,0.553c0.173,0.148,0.391,0.286,0.652,0.41
		c0.262,0.125,0.546,0.254,0.852,0.387c0.306,0.133,0.59,0.293,0.851,0.48c0.262,0.188,0.479,0.421,0.653,0.696
		c0.173,0.277,0.26,0.621,0.26,1.034s-0.068,0.769-0.205,1.067c-0.136,0.298-0.328,0.549-0.575,0.746
		c-0.247,0.2-0.545,0.348-0.896,0.443c-0.35,0.095-0.735,0.144-1.155,0.144c-0.553,0-1.04-0.052-1.46-0.154
		c-0.42-0.104-0.73-0.207-0.929-0.31l0.486-1.295c0.081,0.045,0.187,0.092,0.315,0.145c0.129,0.051,0.274,0.098,0.437,0.142
		c0.163,0.046,0.334,0.083,0.515,0.112c0.181,0.028,0.367,0.045,0.558,0.045c0.45,0,0.795-0.076,1.034-0.227
		C33.346,39.139,33.466,38.908,33.466,38.599z"/>
	<path fill="#B9B9B9" d="M36.064,32.936h1.515v7.742h-1.515V32.936z"/>
	<path fill="#B9B9B9" d="M41.715,36.64h2.887v3.451c-0.31,0.257-0.68,0.445-1.111,0.563c-0.432,0.117-0.857,0.177-1.277,0.177
		c-0.494,0-0.953-0.077-1.376-0.232c-0.424-0.155-0.792-0.396-1.101-0.725c-0.31-0.327-0.552-0.746-0.729-1.255
		c-0.177-0.51-0.266-1.113-0.266-1.814c0-0.729,0.105-1.35,0.315-1.862s0.486-0.93,0.829-1.249c0.343-0.32,0.729-0.555,1.156-0.696
		c0.428-0.145,0.863-0.216,1.305-0.216c0.442,0,0.832,0.032,1.167,0.099c0.336,0.066,0.603,0.136,0.802,0.211l-0.31,1.272
		c-0.185-0.074-0.391-0.132-0.62-0.173c-0.228-0.04-0.52-0.061-0.873-0.061c-0.317,0-0.608,0.048-0.874,0.144
		c-0.265,0.097-0.496,0.254-0.691,0.471c-0.195,0.217-0.346,0.495-0.453,0.834c-0.107,0.34-0.161,0.752-0.161,1.239
		c0,0.465,0.052,0.865,0.155,1.199c0.104,0.336,0.247,0.612,0.432,0.83s0.4,0.378,0.647,0.48s0.51,0.155,0.791,0.155
		c0.191,0,0.379-0.023,0.563-0.072c0.185-0.047,0.339-0.119,0.464-0.215v-1.46l-1.67-0.178V36.64z"/>
	<path fill="#B9B9B9" d="M47.565,36.64l-0.608-1.217h-0.055l0.177,1.217v4.038h-1.438V32.88h1.106l2.93,4.126l0.586,1.182h0.056
		l-0.178-1.182v-4.07h1.438v7.797h-1.105L47.565,36.64z"/>
	<path fill="#B9B9B9" d="M52.829,32.936h4.589v1.351h-3.074v1.802h2.798v1.35h-2.798v1.89h3.129v1.351h-4.645V32.936z"/>
	<path fill="#B9B9B9" d="M58.524,33.013c0.17-0.028,0.352-0.058,0.547-0.082c0.196-0.025,0.391-0.047,0.586-0.062
		s0.385-0.024,0.569-0.032c0.184-0.008,0.354-0.012,0.509-0.012c0.361,0,0.717,0.033,1.067,0.1s0.663,0.18,0.94,0.342
		c0.276,0.163,0.498,0.386,0.663,0.67c0.166,0.284,0.249,0.639,0.249,1.067c0,0.634-0.147,1.15-0.442,1.548s-0.689,0.675-1.183,0.83
		l0.542,0.342l1.769,2.954h-1.747l-1.759-3.031l-0.796-0.144v3.175h-1.515V33.013z M60.847,34.174c-0.155,0-0.308,0.004-0.459,0.011
		c-0.151,0.009-0.267,0.022-0.348,0.046v2.246h0.641c0.42,0,0.756-0.097,1.007-0.288s0.375-0.508,0.375-0.95
		c0-0.332-0.103-0.593-0.31-0.779C61.547,34.268,61.245,34.174,60.847,34.174z"/>
	<path fill="#B9B9B9" d="M67.637,36.341h1.791v-1.868h1.294v1.868h1.803v1.217h-1.803v1.892h-1.294v-1.892h-1.791V36.341z"/>
	<path fill="#B9B9B9" d="M76.296,32.936c0.155-0.021,0.33-0.04,0.525-0.056c0.195-0.015,0.396-0.025,0.603-0.032
		c0.207-0.007,0.408-0.013,0.603-0.019c0.195-0.003,0.37-0.005,0.525-0.005c0.686,0,1.271,0.097,1.759,0.288
		c0.486,0.192,0.881,0.461,1.183,0.808c0.303,0.346,0.524,0.76,0.664,1.238c0.14,0.479,0.21,1.007,0.21,1.582
		c0,0.522-0.066,1.028-0.199,1.515c-0.132,0.487-0.354,0.918-0.664,1.294s-0.717,0.679-1.222,0.907
		c-0.505,0.229-1.13,0.342-1.874,0.342c-0.118,0-0.275-0.004-0.47-0.011S77.54,40.77,77.33,40.76
		c-0.21-0.011-0.411-0.021-0.603-0.033c-0.191-0.012-0.335-0.024-0.431-0.038V32.936L76.296,32.936z M78.672,34.174
		c-0.162,0-0.326,0.004-0.492,0.011c-0.166,0.009-0.29,0.021-0.371,0.034v5.186c0.03,0.009,0.08,0.015,0.149,0.019
		c0.07,0.004,0.146,0.007,0.227,0.011c0.081,0.005,0.158,0.009,0.232,0.013c0.074,0.003,0.129,0.005,0.166,0.005
		c0.428,0,0.784-0.075,1.067-0.227c0.284-0.151,0.509-0.353,0.675-0.603c0.166-0.25,0.282-0.54,0.348-0.868
		c0.066-0.327,0.1-0.666,0.1-1.012c0-0.302-0.03-0.606-0.089-0.912s-0.168-0.581-0.326-0.824s-0.374-0.443-0.646-0.598
		C79.439,34.252,79.093,34.174,78.672,34.174z"/>
	<path fill="#B9B9B9" d="M83.373,32.936h4.589v1.351h-3.074v1.802h2.798v1.35h-2.798v1.89h3.129v1.351h-4.645V32.936z"/>
	<path fill="#B9B9B9" d="M91.611,37.48l0.199,1.315h0.055l0.221-1.326l1.481-4.534h1.593l-2.875,7.797h-1.083l-2.897-7.797h1.758
		L91.611,37.48z"/>
	<path fill="#B9B9B9" d="M95.648,32.936h4.589v1.351h-3.075v1.802h2.798v1.35h-2.798v1.89h3.129v1.351h-4.644V32.936z"/>
	<path fill="#B9B9B9" d="M106.241,40.678h-4.899v-7.742h1.515v6.392h3.384V40.678z"/>
	<path fill="#B9B9B9" d="M105.677,36.806c0-1.289,0.284-2.284,0.851-2.979c0.568-0.697,1.379-1.046,2.433-1.046
		c0.553,0,1.036,0.095,1.449,0.288c0.413,0.19,0.756,0.464,1.028,0.816c0.273,0.354,0.476,0.779,0.608,1.272
		c0.133,0.494,0.199,1.044,0.199,1.647c0,1.29-0.286,2.284-0.857,2.98c-0.571,0.696-1.38,1.046-2.427,1.046
		c-0.56,0-1.047-0.096-1.459-0.288c-0.413-0.19-0.754-0.464-1.023-0.819c-0.269-0.353-0.47-0.777-0.603-1.271
		C105.743,37.96,105.677,37.41,105.677,36.806z M107.27,36.806c0,0.392,0.033,0.751,0.1,1.079s0.167,0.609,0.304,0.846
		c0.136,0.236,0.311,0.421,0.525,0.554c0.214,0.132,0.469,0.198,0.763,0.198c0.538,0,0.955-0.21,1.25-0.63
		c0.295-0.42,0.442-1.102,0.442-2.047c0-0.375-0.031-0.726-0.094-1.05c-0.063-0.325-0.16-0.608-0.293-0.853
		c-0.133-0.243-0.306-0.433-0.52-0.569c-0.213-0.136-0.476-0.205-0.785-0.205c-0.538,0-0.955,0.215-1.25,0.647
		S107.27,35.885,107.27,36.806z"/>
	<path fill="#B9B9B9" d="M113.252,33.013c0.31-0.059,0.651-0.104,1.023-0.138c0.372-0.032,0.742-0.05,1.111-0.05
		c0.383,0,0.769,0.031,1.156,0.096c0.387,0.062,0.735,0.186,1.044,0.375c0.31,0.188,0.562,0.449,0.758,0.785
		c0.195,0.334,0.293,0.772,0.293,1.311c0,0.486-0.084,0.899-0.254,1.233c-0.17,0.335-0.395,0.61-0.675,0.825
		c-0.28,0.212-0.599,0.367-0.957,0.464c-0.358,0.096-0.728,0.143-1.111,0.143c-0.037,0-0.096,0-0.177,0
		c-0.082,0-0.166,0-0.255-0.006c-0.088-0.003-0.175-0.009-0.26-0.017c-0.085-0.007-0.146-0.016-0.183-0.021v2.665h-1.515V33.013z
		 M115.508,34.13c-0.147,0-0.288,0.007-0.42,0.019c-0.133,0.011-0.239,0.022-0.321,0.036v2.512c0.03,0.009,0.074,0.016,0.133,0.021
		c0.059,0.007,0.122,0.014,0.188,0.018c0.067,0.004,0.131,0.006,0.193,0.006c0.063,0,0.109,0,0.138,0c0.2,0,0.396-0.02,0.592-0.056
		c0.195-0.037,0.371-0.104,0.526-0.206c0.155-0.098,0.278-0.237,0.37-0.414c0.092-0.176,0.138-0.409,0.138-0.696
		c0-0.244-0.044-0.443-0.133-0.602c-0.088-0.159-0.205-0.287-0.348-0.382c-0.144-0.097-0.308-0.163-0.492-0.201
		C115.888,34.148,115.7,34.13,115.508,34.13z"/>
	<path fill="#B9B9B9" d="M119.5,32.936h4.589v1.351h-3.074v1.802h2.798v1.35h-2.798v1.89h3.129v1.351H119.5V32.936z"/>
	<path fill="#B9B9B9" d="M125.196,33.013c0.169-0.028,0.352-0.058,0.547-0.082c0.195-0.025,0.391-0.047,0.586-0.062
		c0.195-0.015,0.385-0.024,0.569-0.032c0.185-0.008,0.354-0.012,0.509-0.012c0.361,0,0.717,0.033,1.067,0.1
		c0.35,0.066,0.664,0.18,0.94,0.342c0.277,0.163,0.498,0.386,0.665,0.67c0.166,0.284,0.249,0.639,0.249,1.067
		c0,0.634-0.148,1.15-0.442,1.548c-0.295,0.397-0.689,0.675-1.183,0.83l0.542,0.342l1.77,2.954h-1.748l-1.758-3.031l-0.796-0.144
		v3.175h-1.515v-7.665H125.196z M127.518,34.174c-0.155,0-0.308,0.004-0.459,0.011c-0.151,0.009-0.267,0.022-0.349,0.046v2.246
		h0.642c0.42,0,0.756-0.097,1.005-0.288c0.25-0.191,0.376-0.508,0.376-0.95c0-0.332-0.102-0.593-0.31-0.779
		C128.218,34.268,127.915,34.174,127.518,34.174z"/>
	<path fill="#B9B9B9" d="M134.308,36.341h1.791v-1.868h1.294v1.868h1.803v1.217h-1.803v1.892h-1.294v-1.892h-1.791V36.341z"/>
	<path fill="#B9B9B9" d="M148.972,36.662l0.166-1.537h-0.067l-0.476,1.239l-1.648,2.886h-0.486l-1.737-2.897l-0.486-1.228h-0.056
		l0.221,1.525v4.027h-1.438v-7.742h1.382l2.068,3.539l0.365,0.886h0.045l0.331-0.906l1.957-3.518h1.372v7.741h-1.514v-4.016H148.972
		z"/>
	<path fill="#B9B9B9" d="M155.551,38.963h-2.377l-0.587,1.715h-1.514l2.786-7.798h1.119l2.785,7.798h-1.594L155.551,38.963z
		 M153.56,37.747h1.66l-0.576-1.727l-0.232-1.216h-0.054l-0.234,1.228L153.56,37.747z"/>
	<path fill="#B9B9B9" d="M160.261,37.371h-0.398v3.307h-1.517v-7.742h1.517v3.429l0.354-0.154l2.135-3.274h1.725l-2.255,3.251
		l-0.598,0.421l0.619,0.431l2.576,3.64h-1.868L160.261,37.371z"/>
	<path fill="#B9B9B9" d="M165.128,32.936h4.589v1.351h-3.074v1.802h2.798v1.35h-2.798v1.89h3.13v1.351h-4.645V32.936z"/>
	<path fill="#B9B9B9" d="M170.823,33.013c0.169-0.028,0.351-0.058,0.547-0.082c0.194-0.025,0.391-0.047,0.587-0.062
		c0.194-0.015,0.386-0.024,0.569-0.032s0.354-0.012,0.509-0.012c0.36,0,0.716,0.033,1.067,0.1c0.35,0.066,0.662,0.18,0.94,0.342
		c0.275,0.163,0.497,0.386,0.662,0.67c0.169,0.284,0.249,0.639,0.249,1.067c0,0.634-0.146,1.15-0.441,1.548s-0.689,0.675-1.182,0.83
		l0.542,0.342l1.769,2.954h-1.747l-1.759-3.031l-0.795-0.144v3.175h-1.516v-7.665H170.823z M173.146,34.174
		c-0.155,0-0.309,0.004-0.459,0.011c-0.152,0.009-0.268,0.022-0.348,0.046v2.246h0.64c0.419,0,0.756-0.097,1.007-0.288
		c0.25-0.191,0.375-0.508,0.375-0.95c0-0.332-0.102-0.593-0.309-0.779C173.845,34.268,173.542,34.174,173.146,34.174z"/>
	<path fill="#B9B9B9" d="M179.736,36.806c0-1.289,0.284-2.284,0.852-2.979c0.568-0.698,1.378-1.046,2.434-1.046
		c0.553,0,1.034,0.095,1.448,0.288c0.412,0.19,0.756,0.464,1.028,0.816c0.273,0.354,0.475,0.779,0.608,1.272
		c0.133,0.494,0.199,1.044,0.199,1.647c0,1.29-0.286,2.284-0.856,2.98c-0.572,0.696-1.381,1.046-2.428,1.046
		c-0.561,0-1.048-0.096-1.46-0.288c-0.412-0.19-0.754-0.464-1.022-0.819c-0.271-0.353-0.47-0.777-0.604-1.271
		C179.803,37.96,179.736,37.41,179.736,36.806z M181.329,36.806c0,0.392,0.032,0.751,0.098,1.079
		c0.067,0.328,0.169,0.609,0.305,0.846s0.312,0.421,0.525,0.554c0.214,0.132,0.468,0.198,0.763,0.198c0.538,0,0.954-0.21,1.249-0.63
		s0.442-1.102,0.442-2.047c0-0.375-0.03-0.726-0.094-1.05c-0.062-0.325-0.161-0.608-0.293-0.853
		c-0.134-0.243-0.306-0.433-0.521-0.569c-0.214-0.136-0.475-0.205-0.784-0.205c-0.538,0-0.956,0.215-1.249,0.647
		C181.477,35.209,181.329,35.885,181.329,36.806z"/>
	<path fill="#B9B9B9" d="M187.312,32.936h4.59v1.351h-3.075v1.912h2.83v1.349h-2.83v3.131h-1.515V32.936L187.312,32.936z"/>
	<path fill="#B9B9B9" d="M200.669,34.286h-2.255v6.392h-1.516v-6.392h-2.266v-1.351h6.036V34.286L200.669,34.286z"/>
	<path fill="#B9B9B9" d="M205.724,37.438h-2.83v3.24h-1.515v-7.741h1.515v3.151h2.83v-3.151h1.516v7.741h-1.516V37.438z"/>
	<path fill="#B9B9B9" d="M208.653,32.936h1.517v7.742h-1.517V32.936z"/>
	<path fill="#B9B9B9" d="M213.497,36.64l-0.608-1.217h-0.056l0.179,1.217v4.038h-1.438V32.88h1.104l2.931,4.126l0.587,1.182h0.056
		l-0.178-1.182v-4.07h1.438v7.797h-1.104L213.497,36.64z"/>
	<path fill="#B9B9B9" d="M221.492,36.64h2.888v3.451c-0.31,0.257-0.681,0.445-1.11,0.563c-0.433,0.117-0.859,0.177-1.278,0.177
		c-0.495,0-0.954-0.077-1.377-0.232c-0.425-0.155-0.79-0.396-1.1-0.725c-0.31-0.327-0.555-0.746-0.73-1.255
		c-0.177-0.51-0.265-1.113-0.265-1.814c0-0.729,0.104-1.35,0.314-1.862c0.212-0.513,0.486-0.93,0.83-1.249
		c0.342-0.32,0.727-0.555,1.155-0.696c0.427-0.145,0.862-0.216,1.305-0.216c0.441,0,0.83,0.032,1.167,0.099
		c0.335,0.066,0.603,0.136,0.801,0.211l-0.31,1.272c-0.184-0.074-0.391-0.132-0.619-0.173c-0.229-0.04-0.521-0.061-0.873-0.061
		c-0.316,0-0.608,0.048-0.875,0.144c-0.265,0.097-0.495,0.254-0.691,0.471c-0.194,0.217-0.345,0.495-0.45,0.834
		c-0.108,0.34-0.163,0.752-0.163,1.239c0,0.465,0.053,0.865,0.154,1.199c0.104,0.336,0.25,0.612,0.434,0.83
		c0.183,0.218,0.4,0.378,0.647,0.48s0.51,0.155,0.789,0.155c0.191,0,0.38-0.023,0.563-0.072c0.184-0.047,0.341-0.119,0.465-0.215
		v-1.46l-1.671-0.178V36.64L221.492,36.64z"/>
	<path fill="#B9B9B9" d="M228.757,38.599c0-0.236-0.086-0.429-0.259-0.576s-0.391-0.282-0.653-0.404
		c-0.261-0.122-0.546-0.247-0.852-0.375c-0.306-0.13-0.589-0.288-0.852-0.477c-0.261-0.188-0.479-0.422-0.651-0.702
		c-0.174-0.281-0.261-0.638-0.261-1.073c0-0.375,0.062-0.702,0.188-0.979c0.124-0.276,0.305-0.507,0.537-0.69
		c0.231-0.184,0.505-0.32,0.824-0.408c0.316-0.09,0.67-0.134,1.06-0.134c0.45,0,0.875,0.038,1.272,0.116
		c0.398,0.077,0.726,0.189,0.985,0.337l-0.476,1.271c-0.165-0.103-0.407-0.196-0.731-0.282c-0.324-0.085-0.674-0.128-1.052-0.128
		c-0.354,0-0.625,0.07-0.812,0.212c-0.188,0.14-0.282,0.326-0.282,0.562c0,0.221,0.086,0.405,0.261,0.553
		c0.173,0.148,0.391,0.286,0.651,0.41c0.262,0.125,0.546,0.254,0.852,0.387s0.591,0.293,0.852,0.48
		c0.263,0.188,0.479,0.421,0.653,0.696c0.174,0.277,0.259,0.621,0.259,1.034s-0.068,0.769-0.205,1.067
		c-0.135,0.298-0.327,0.549-0.574,0.746c-0.246,0.2-0.545,0.348-0.896,0.443c-0.349,0.095-0.734,0.144-1.155,0.144
		c-0.554,0-1.038-0.052-1.46-0.154c-0.419-0.104-0.729-0.207-0.93-0.31l0.486-1.295c0.081,0.045,0.188,0.092,0.316,0.145
		c0.129,0.051,0.274,0.098,0.437,0.142c0.162,0.046,0.334,0.083,0.515,0.112c0.181,0.028,0.367,0.045,0.559,0.045
		c0.449,0,0.795-0.076,1.035-0.227C228.637,39.137,228.757,38.908,228.757,38.599z"/>
</g>
</svg>
