<?xml version="1.0" encoding="utf-8"?>
<!-- Generator: Adobe Illustrator 16.0.0, SVG Export Plug-In . SVG Version: 6.00 Build 0)  -->
<!DOCTYPE svg PUBLIC "-//W3C//DTD SVG 1.1//EN" "http://www.w3.org/Graphics/SVG/1.1/DTD/svg11.dtd">
<svg version="1.1" id="Layer_1" xmlns="http://www.w3.org/2000/svg" xmlns:xlink="http://www.w3.org/1999/xlink" x="0px" y="0px"
	 width="196.094px" height="36px" viewBox="0 0 196.094 36" style="enable-background:new 0 0 196.094 36;" xml:space="preserve">
<g>
	
		<linearGradient id="SVGID_1_" gradientUnits="userSpaceOnUse" x1="438.4917" y1="-387.5542" x2="438.4917" y2="-445.1538" gradientTransform="matrix(0.625 0 0 -0.625 -135.9654 -242.2214)">
		<stop  offset="0" style="stop-color:#FFFFFF"/>
		<stop  offset="1" style="stop-color:#EAEAEA"/>
	</linearGradient>
	<path style="fill:url(#SVGID_1_);" d="M156.092,31.5c0,2.485-2.016,4.5-4.5,4.5h-27c-2.484,0-4.5-2.015-4.5-4.5v-27
		c0-2.485,2.016-4.5,4.5-4.5h27c2.484,0,4.5,2.015,4.5,4.5V31.5z"/>
	<circle style="fill:#EAEAEA;" cx="131.342" cy="16.5" r="5.25"/>
	<circle style="fill:#EAEAEA;" cx="145.592" cy="16.5" r="5.25"/>
	<circle style="fill:#0066CC;" cx="131.342" cy="18" r="5.25"/>
	<circle style="fill:#FF0099;" cx="145.592" cy="18" r="5.25"/>
</g>
<g>
	
		<linearGradient id="SVGID_2_" gradientUnits="userSpaceOnUse" x1="246.3452" y1="-387.5542" x2="246.3452" y2="-445.1538" gradientTransform="matrix(0.625 0 0 -0.625 -135.9654 -242.2214)">
		<stop  offset="0" style="stop-color:#41B8D0"/>
		<stop  offset="1" style="stop-color:#256FBB"/>
	</linearGradient>
	<path style="fill:url(#SVGID_2_);" d="M36,31.5c0,2.485-2.015,4.5-4.5,4.5h-27C2.015,36,0,33.985,0,31.5v-27C0,2.015,2.015,0,4.5,0
		h27C33.985,0,36,2.015,36,4.5V31.5z"/>
	<g>
		<g>
			<path style="fill:#257EAA;" d="M9.929,25.418h3.74V12.632h-3.74V25.418z M11.798,7.474c-1.207,0-1.993,0.813-1.969,1.896
				c-0.024,1.033,0.764,1.869,1.946,1.869c1.23,0,2.017-0.836,2.017-1.869C13.769,8.287,13.004,7.474,11.798,7.474z M23.785,12.812
				c-1.197,0-2.417-0.248-3.717,1.769h-0.075l-0.065-1.948h-3.313c0.049,1.058,0.056,2.639,0.056,4.141v8.646h3.741v-7.391
				c0-0.346,0.048-0.69,0.147-0.937c0.246-0.689,0.861-1.403,1.895-1.403c1.355,0,1.896,1.06,1.896,2.61v7.12h3.74v-7.589
				C28.091,14.286,26.245,12.812,23.785,12.812z"/>
		</g>
	</g>
	<g>
		<g>
			<path style="fill:#FFFFFF;" d="M11.798,8.724c-1.207,0-1.993,0.813-1.969,1.896c-0.024,1.033,0.764,1.87,1.946,1.87
				c1.23,0,2.017-0.837,2.017-1.87C13.769,9.537,13.004,8.724,11.798,8.724z M9.929,26.669h3.74V13.881h-3.74V26.669z
				 M23.785,14.061c-1.197,0-2.417-0.246-3.717,1.771h-0.075l-0.065-1.949h-3.313c0.049,1.058,0.056,2.639,0.056,4.139v8.647h3.741
				v-7.392c0-0.345,0.048-0.689,0.147-0.936c0.246-0.688,0.861-1.403,1.895-1.403c1.355,0,1.896,1.06,1.896,2.61v7.12h3.74v-7.59
				C28.091,15.535,26.245,14.061,23.785,14.061z"/>
		</g>
	</g>
</g>
<g>
	
		<linearGradient id="SVGID_3_" gradientUnits="userSpaceOnUse" x1="87.9487" y1="-31.8228" x2="87.9487" y2="-18.0229" gradientTransform="matrix(2.6042 0 0 2.6042 -130.9723 82.8741)">
		<stop  offset="0" style="stop-color:#2F4E68"/>
		<stop  offset="1" style="stop-color:#22394C"/>
	</linearGradient>
	<path style="fill:url(#SVGID_3_);" d="M116.031,31.445c0,2.48-2.013,4.493-4.492,4.493H84.586c-2.482,0-4.494-2.013-4.494-4.493
		V4.492c0-2.48,2.012-4.492,4.494-4.492h26.953c2.479,0,4.492,2.012,4.492,4.492V31.445z"/>
	<path style="fill:#22394C;" d="M99.059,3.984v6.391h6.351v4.01h-6.351v8.259c0,0-0.12,4.604,7.066,1.43V28
		c0,0-2.501,0.956-6.512,0.956s-5.874-2.105-5.874-4.606c0-2.502,0-10.045,0-10.045h-3.177v-3.177c0,0,5.161-1.866,5.2-7.146h3.296
		V3.984z"/>
	<path style="fill:#FFFFFF;" d="M99.059,5.483v6.392h6.351v4.01h-6.351v8.258c0,0-0.12,4.606,7.066,1.429V29.5
		c0,0-2.501,0.954-6.512,0.954s-5.874-2.105-5.874-4.605c0-2.501,0-10.044,0-10.044h-3.177v-3.177c0,0,5.161-1.865,5.2-7.145
		L99.059,5.483L99.059,5.483z"/>
</g>
<g>
	
		<linearGradient id="SVGID_4_" gradientUnits="userSpaceOnUse" x1="310.4917" y1="-387.5542" x2="310.4917" y2="-445.1538" gradientTransform="matrix(0.625 0 0 -0.625 -135.9654 -242.2214)">
		<stop  offset="0" style="stop-color:#4BD0EF"/>
		<stop  offset="1" style="stop-color:#29AAE1"/>
	</linearGradient>
	<path style="fill:url(#SVGID_4_);" d="M76.092,31.5c0,2.485-2.015,4.5-4.5,4.5h-27c-2.485,0-4.5-2.015-4.5-4.5v-27
		c0-2.484,2.015-4.5,4.5-4.5h27c2.485,0,4.5,2.016,4.5,4.5V31.5z"/>
	<path style="fill:#29AAE1;" d="M70.267,10.059c-0.841,0.373-1.743,0.626-2.692,0.739c0.969-0.582,1.709-1.498,2.06-2.592
		c-0.904,0.536-1.907,0.925-2.975,1.136c-0.855-0.91-2.072-1.479-3.42-1.479c-2.587,0-4.685,2.097-4.685,4.686
		c0,0.368,0.041,0.724,0.121,1.068c-3.895-0.197-7.347-2.062-9.657-4.896c-0.403,0.691-0.635,1.496-0.635,2.356
		c0,1.625,0.827,3.058,2.085,3.899c-0.769-0.024-1.491-0.235-2.124-0.585c0,0.02,0,0.04,0,0.059c0,2.27,1.615,4.163,3.759,4.594
		c-0.394,0.106-0.807,0.164-1.235,0.164c-0.302,0-0.595-0.028-0.881-0.082c0.597,1.859,2.327,3.215,4.376,3.254
		c-1.604,1.256-3.624,2.006-5.818,2.006c-0.377,0-0.751-0.023-1.118-0.067c2.073,1.332,4.536,2.106,7.182,2.106
		c8.618,0,13.331-7.14,13.331-13.332c0-0.203-0.004-0.404-0.014-0.607C68.844,11.825,69.638,11,70.267,10.059z"/>
	<path style="fill:#FFFFFF;" d="M70.267,11.055c-0.841,0.373-1.743,0.624-2.692,0.737c0.969-0.58,1.709-1.498,2.06-2.592
		c-0.904,0.537-1.907,0.927-2.975,1.138c-0.855-0.911-2.072-1.479-3.42-1.479c-2.587,0-4.685,2.096-4.685,4.685
		c0,0.367,0.041,0.727,0.121,1.068c-3.895-0.194-7.347-2.06-9.657-4.895c-0.403,0.692-0.635,1.496-0.635,2.356
		c0,1.624,0.827,3.059,2.085,3.899c-0.769-0.025-1.491-0.236-2.124-0.586c0,0.02,0,0.038,0,0.06c0,2.27,1.615,4.162,3.759,4.593
		c-0.394,0.107-0.807,0.164-1.235,0.164c-0.302,0-0.595-0.027-0.881-0.082c0.597,1.86,2.327,3.214,4.376,3.253
		c-1.604,1.258-3.624,2.007-5.818,2.007c-0.377,0-0.751-0.024-1.118-0.068c2.073,1.332,4.536,2.107,7.182,2.107
		c8.618,0,13.331-7.14,13.331-13.332c0-0.202-0.004-0.404-0.014-0.604C68.844,12.819,69.638,11.994,70.267,11.055z"/>
</g>
<g>
	
		<linearGradient id="SVGID_5_" gradientUnits="userSpaceOnUse" x1="502.4937" y1="-387.5542" x2="502.4937" y2="-445.1538" gradientTransform="matrix(0.625 0 0 -0.625 -135.9654 -242.2214)">
		<stop  offset="0" style="stop-color:#9FE8FF"/>
		<stop  offset="1" style="stop-color:#59D6FF"/>
	</linearGradient>
	<path style="fill:url(#SVGID_5_);" d="M196.094,31.5c0,2.485-2.018,4.5-4.502,4.5h-27c-2.484,0-4.5-2.015-4.5-4.5v-27
		c0-2.484,2.016-4.5,4.5-4.5h27c2.484,0,4.502,2.016,4.502,4.5V31.5z"/>
	<path style="fill:#B0F0FF;" d="M180.85,14.321c0,0-2.887-0.186-0.799-1.964c2.088-1.781,5.279-2.578,7.979-0.737
		c2.701,1.841,2.762,4.541,0,4.234c0,0-1.41,4.113-4.604,7.55c-3.191,3.437-6.812,8.96-10.002,2.823
		c-3.191-6.138-2.148-7.734-3.746-10.68c0,0-6.381,1.167-2.885-1.351c3.5-2.515,7.611-4.665,7.855-1.594
		c0.246,3.067,1.352,10.311,3.377,9.877c2.025-0.428,4.113-4.783,4.297-6.502C182.506,14.258,180.85,14.321,180.85,14.321z"/>
	<path style="fill:#212121;" d="M180.85,12.82c0,0-2.887-0.185-0.799-1.963c2.088-1.782,5.279-2.579,7.979-0.737
		c2.701,1.84,2.762,4.541,0,4.234c0,0-1.41,4.113-4.604,7.548c-3.191,3.438-6.812,8.961-10.002,2.824
		c-3.191-6.139-2.148-7.733-3.746-10.679c0,0-6.381,1.166-2.885-1.352c3.5-2.515,7.611-4.664,7.855-1.593
		c0.246,3.067,1.352,10.309,3.377,9.878c2.025-0.428,4.113-4.786,4.297-6.503C182.506,12.759,180.85,12.82,180.85,12.82z"/>
</g>
<g>
</g>
<g>
</g>
<g>
</g>
<g>
</g>
<g>
</g>
<g>
</g>
<g>
</g>
<g>
</g>
<g>
</g>
<g>
</g>
<g>
</g>
<g>
</g>
<g>
</g>
<g>
</g>
<g>
</g>
</svg>
