<?xml version="1.0" encoding="utf-8"?>
<!-- Generator: Adobe Illustrator 16.0.0, SVG Export Plug-In . SVG Version: 6.00 Build 0)  -->
<!DOCTYPE svg PUBLIC "-//W3C//DTD SVG 1.1//EN" "http://www.w3.org/Graphics/SVG/1.1/DTD/svg11.dtd">
<svg version="1.1" id="Layer_1" xmlns="http://www.w3.org/2000/svg" xmlns:xlink="http://www.w3.org/1999/xlink" x="0px" y="0px"
	 width="108.942px" height="20.044px" viewBox="0 0 108.942 20.044" style="enable-background:new 0 0 108.942 20.044;"
	 xml:space="preserve">
<g>
	
		<linearGradient id="SVGID_1_" gradientUnits="userSpaceOnUse" x1="339.2915" y1="-387.6245" x2="339.2915" y2="-419.6255" gradientTransform="matrix(0.625 0 0 -0.625 -135.9654 -242.2214)">
		<stop  offset="0" style="stop-color:#FFFFFF"/>
		<stop  offset="1" style="stop-color:#EAEAEA"/>
	</linearGradient>
	<path style="fill:url(#SVGID_1_);" d="M86.092,17.545c0,1.381-1.12,2.5-2.5,2.5h-15c-1.38,0-2.5-1.119-2.5-2.5V2.544
		c0-1.38,1.12-2.5,2.5-2.5h15c1.38,0,2.5,1.12,2.5,2.5V17.545z"/>
	<circle style="fill:#EAEAEA;" cx="72.342" cy="9.211" r="2.917"/>
	<circle style="fill:#EAEAEA;" cx="80.259" cy="9.211" r="2.917"/>
	<circle style="fill:#0066CC;" cx="72.342" cy="10.044" r="2.916"/>
	<circle style="fill:#FF0099;" cx="80.259" cy="10.044" r="2.916"/>
</g>
<g>
	
		<linearGradient id="SVGID_2_" gradientUnits="userSpaceOnUse" x1="233.5454" y1="-387.6245" x2="233.5454" y2="-419.6255" gradientTransform="matrix(0.625 0 0 -0.625 -135.9654 -242.2214)">
		<stop  offset="0" style="stop-color:#41B8D0"/>
		<stop  offset="1" style="stop-color:#256FBB"/>
	</linearGradient>
	<path style="fill:url(#SVGID_2_);" d="M20,17.545c0,1.381-1.12,2.5-2.5,2.5h-15c-1.38,0-2.5-1.119-2.5-2.5V2.544
		c0-1.38,1.12-2.5,2.5-2.5h15c1.38,0,2.5,1.12,2.5,2.5V17.545z"/>
	<g>
		<g>
			<path style="fill:#257EAA;" d="M5.516,14.165h2.078V7.062H5.516V14.165z M6.555,4.196c-0.67,0-1.107,0.452-1.094,1.054
				C5.448,5.824,5.885,6.288,6.542,6.288c0.684,0,1.121-0.464,1.121-1.038C7.649,4.648,7.225,4.196,6.555,4.196z M13.214,7.162
				c-0.665,0-1.343-0.138-2.065,0.982h-0.042l-0.036-1.082H9.23c0.027,0.588,0.031,1.466,0.031,2.301v4.803h2.078V10.06
				c0-0.192,0.027-0.384,0.082-0.521c0.137-0.383,0.479-0.78,1.053-0.78c0.753,0,1.053,0.589,1.053,1.45v3.956h2.078V9.949
				C15.606,7.98,14.581,7.162,13.214,7.162z"/>
		</g>
	</g>
	<g>
		<g>
			<path style="fill:#FFFFFF;" d="M6.555,4.891c-0.67,0-1.107,0.452-1.094,1.054C5.448,6.518,5.885,6.983,6.542,6.983
				c0.684,0,1.121-0.465,1.121-1.039C7.649,5.342,7.225,4.891,6.555,4.891z M5.516,14.86h2.078V7.756H5.516V14.86z M13.214,7.855
				c-0.665,0-1.343-0.137-2.065,0.983h-0.042l-0.036-1.082H9.23c0.027,0.587,0.031,1.466,0.031,2.299v4.805h2.078v-4.106
				c0-0.191,0.027-0.384,0.082-0.521c0.137-0.382,0.479-0.779,1.053-0.779c0.753,0,1.053,0.589,1.053,1.45v3.956h2.078v-4.217
				C15.606,8.675,14.581,7.855,13.214,7.855z"/>
		</g>
	</g>
</g>
<g>
	
		<linearGradient id="SVGID_3_" gradientUnits="userSpaceOnUse" x1="71.0581" y1="-31.8062" x2="71.0581" y2="-24.1392" gradientTransform="matrix(2.6042 0 0 2.6042 -130.9723 82.8741)">
		<stop  offset="0" style="stop-color:#2F4E68"/>
		<stop  offset="1" style="stop-color:#22394C"/>
	</linearGradient>
	<path style="fill:url(#SVGID_3_);" d="M64.058,17.514c0,1.379-1.118,2.496-2.496,2.496H46.588c-1.378,0-2.496-1.117-2.496-2.496
		V2.54c0-1.378,1.118-2.496,2.496-2.496h14.974c1.377,0,2.496,1.118,2.496,2.496V17.514z"/>
	<path style="fill:#22394C;" d="M54.629,2.257v3.55h3.528v2.228h-3.528v4.588c0,0-0.067,2.558,3.926,0.794V15.6
		c0,0-1.389,0.531-3.618,0.531c-2.228,0-3.263-1.17-3.263-2.56s0-5.58,0-5.58h-1.765V6.226c0,0,2.868-1.037,2.889-3.97L54.629,2.257
		L54.629,2.257z"/>
	<path style="fill:#FFFFFF;" d="M54.629,3.09v3.551h3.528v2.228h-3.528v4.588c0,0-0.067,2.56,3.926,0.794v2.183
		c0,0-1.389,0.529-3.618,0.529c-2.228,0-3.263-1.17-3.263-2.559c0-1.39,0-5.58,0-5.58h-1.765V7.059c0,0,2.868-1.036,2.889-3.969
		L54.629,3.09L54.629,3.09z"/>
</g>
<g>
	
		<linearGradient id="SVGID_4_" gradientUnits="userSpaceOnUse" x1="268.8931" y1="-387.6245" x2="268.8931" y2="-419.6255" gradientTransform="matrix(0.625 0 0 -0.625 -135.9654 -242.2214)">
		<stop  offset="0" style="stop-color:#4BD0EF"/>
		<stop  offset="1" style="stop-color:#29AAE1"/>
	</linearGradient>
	<path style="fill:url(#SVGID_4_);" d="M42.092,17.545c0,1.381-1.12,2.5-2.5,2.5h-15c-1.381,0-2.5-1.119-2.5-2.5V2.544
		c0-1.38,1.119-2.5,2.5-2.5h15c1.38,0,2.5,1.12,2.5,2.5V17.545z"/>
	<path style="fill:#29AAE1;" d="M38.855,5.632c-0.467,0.207-0.968,0.348-1.496,0.411c0.539-0.323,0.95-0.832,1.145-1.44
		c-0.502,0.298-1.06,0.514-1.653,0.631c-0.475-0.505-1.151-0.821-1.9-0.821c-1.438,0-2.603,1.165-2.603,2.603
		c0,0.205,0.022,0.402,0.067,0.593c-2.164-0.109-4.081-1.146-5.365-2.72c-0.224,0.384-0.353,0.831-0.353,1.309
		c0,0.902,0.46,1.699,1.159,2.166c-0.427-0.013-0.828-0.13-1.18-0.325c0,0.011,0,0.022,0,0.033c0,1.261,0.897,2.312,2.088,2.552
		c-0.219,0.06-0.448,0.092-0.686,0.092c-0.168,0-0.331-0.016-0.49-0.046c0.332,1.033,1.293,1.786,2.431,1.808
		c-0.891,0.698-2.014,1.114-3.232,1.114c-0.21,0-0.417-0.013-0.621-0.037c1.151,0.74,2.52,1.17,3.99,1.17
		c4.788,0,7.406-3.966,7.406-7.406c0-0.113-0.002-0.225-0.008-0.337C38.065,6.613,38.506,6.155,38.855,5.632z"/>
	<path style="fill:#FFFFFF;" d="M38.855,6.186c-0.467,0.207-0.968,0.346-1.496,0.41c0.539-0.322,0.95-0.832,1.145-1.44
		c-0.502,0.298-1.06,0.515-1.653,0.632c-0.475-0.506-1.151-0.822-1.9-0.822c-1.438,0-2.603,1.165-2.603,2.603
		c0,0.204,0.022,0.404,0.067,0.593c-2.164-0.108-4.081-1.145-5.365-2.719c-0.224,0.385-0.353,0.831-0.353,1.309
		c0,0.902,0.46,1.699,1.159,2.166c-0.427-0.014-0.828-0.131-1.18-0.325c0,0.011,0,0.021,0,0.033c0,1.261,0.897,2.312,2.088,2.552
		c-0.219,0.06-0.448,0.091-0.686,0.091c-0.168,0-0.331-0.015-0.49-0.045c0.332,1.033,1.293,1.785,2.431,1.807
		c-0.891,0.699-2.014,1.115-3.232,1.115c-0.21,0-0.417-0.014-0.621-0.038c1.151,0.74,2.52,1.171,3.99,1.171
		c4.788,0,7.406-3.967,7.406-7.407c0-0.112-0.002-0.225-0.008-0.335C38.065,7.166,38.506,6.707,38.855,6.186z"/>
</g>
<g>
	
		<linearGradient id="SVGID_5_" gradientUnits="userSpaceOnUse" x1="374.4937" y1="-387.6245" x2="374.4937" y2="-419.6255" gradientTransform="matrix(0.625 0 0 -0.625 -135.9654 -242.2214)">
		<stop  offset="0" style="stop-color:#9FE8FF"/>
		<stop  offset="1" style="stop-color:#59D6FF"/>
	</linearGradient>
	<path style="fill:url(#SVGID_5_);" d="M108.094,17.545c0,1.381-1.121,2.5-2.502,2.5h-15c-1.38,0-2.5-1.119-2.5-2.5V2.544
		c0-1.38,1.12-2.5,2.5-2.5h15c1.381,0,2.502,1.12,2.502,2.5V17.545z"/>
	<path style="fill:#B0F0FF;" d="M99.624,8c0,0-1.604-0.104-0.443-1.091c1.16-0.989,2.933-1.432,4.433-0.41
		c1.5,1.023,1.534,2.522,0,2.353c0,0-0.783,2.285-2.558,4.194c-1.773,1.909-3.785,4.978-5.557,1.568
		c-1.773-3.41-1.193-4.297-2.081-5.934c0,0-3.545,0.648-1.603-0.75c1.945-1.397,4.229-2.591,4.365-0.885
		c0.137,1.704,0.75,5.728,1.876,5.487c1.125-0.237,2.285-2.657,2.387-3.612C100.545,7.965,99.624,8,99.624,8z"/>
	<path style="fill:#212121;" d="M99.624,7.167c0,0-1.604-0.103-0.443-1.091c1.16-0.99,2.933-1.433,4.433-0.41
		c1.5,1.022,1.534,2.522,0,2.353c0,0-0.783,2.285-2.558,4.193c-1.773,1.91-3.785,4.979-5.557,1.569
		c-1.773-3.411-1.193-4.297-2.081-5.933c0,0-3.545,0.647-1.603-0.751C93.76,5.7,96.044,4.506,96.18,6.212
		c0.137,1.704,0.75,5.727,1.876,5.488c1.125-0.237,2.285-2.659,2.387-3.613C100.545,7.132,99.624,7.167,99.624,7.167z"/>
</g>
<g>
</g>
<g>
</g>
<g>
</g>
<g>
</g>
<g>
</g>
<g>
</g>
<g>
</g>
<g>
</g>
<g>
</g>
<g>
</g>
<g>
</g>
<g>
</g>
<g>
</g>
<g>
</g>
<g>
</g>
</svg>
